<svg width="2142" height="500" viewBox="0 0 2142 500" fill="none" xmlns="http://www.w3.org/2000/svg">
<path d="M55.6647 -1.5806e-05C48.3624 -1.61252e-05 41.1316 1.43827 34.3852 4.23274C27.6387 7.02721 21.5087 11.1231 16.3452 16.2866C11.1817 21.4501 7.08581 27.5801 4.29134 34.3265C1.49688 41.073 0.0586336 48.3038 0.0586333 55.6061L0.0586187 389.401C0.058618 404.149 5.91703 418.293 16.3452 428.721C26.7733 439.149 40.917 445.007 55.6647 445.007L292.118 445.007C306.865 445.007 321.009 439.149 331.437 428.721C341.865 418.293 347.724 404.149 347.724 389.401L347.724 264.256C347.724 214.719 417.263 222.535 417.263 146.895L417.263 55.6378C417.263 40.8902 411.404 26.7466 400.976 16.3184C390.548 5.89027 376.405 0.0317799 361.657 0.0317793L55.6647 -1.5806e-05Z" fill="#449342"/>
<path d="M292.123 449.742L292.123 358.468C292.123 282.844 222.568 283.607 222.568 234.07L222.568 108.893C222.568 78.1662 197.672 50.7286 166.962 47.6147L113.072 40.7513L55.6862 33.4589L55.6862 33.1889C47.25 31.6001 41.7847 23.8471 41.7847 15.109C41.7495 13.056 42.1439 11.0184 42.9427 9.12688C43.7415 7.23539 44.927 5.53181 46.423 4.12552C47.9191 2.71923 49.6926 1.64131 51.6299 0.960931C53.5671 0.280554 55.6253 0.0127603 57.6722 0.174753C56.9731 0.174753 56.3217 -1.03072e-05 55.6226 -1.03378e-05C42.3423 0.0221071 29.5106 4.80729 19.4586 13.4862C9.40659 22.1651 2.80128 34.1618 0.842726 47.2969C0.265743 50.0393 -0.0165573 52.8354 0.000671148 55.6378L0.000655341 417.252C0.000653998 447.978 24.8962 475.416 55.6067 478.53L236.422 499.708C267.212 502.838 292.123 480.468 292.123 449.742Z" fill="#C1F6ED"/>
<path d="M386.952 360.386C386.952 307.957 425.622 277.533 469.265 277.533C486.194 277.324 502.602 283.378 515.339 294.532L493.239 324.623C485.677 318.268 479.338 315.313 471.823 315.313C449.31 315.313 434.853 333.059 434.853 360.386C434.853 387.712 449.914 405.363 470.25 405.363C480.609 405.363 490.538 400.231 498.736 393.717L517.07 424.333C501.707 437.9 482.118 443.143 464.991 443.143C420.967 443.143 386.952 412.798 386.952 360.386Z" fill="#C1F6ED"/>
<path d="M544.804 390.236V216.252H591.608V392.142C591.608 402.183 596.263 405.361 600.076 405.361C601.994 405.4 603.909 405.17 605.764 404.678L611.34 439.185C606.177 441.393 598.487 443.093 587.859 443.093C555.782 443.141 544.804 422.154 544.804 390.236Z" fill="#C1F6ED"/>
<path d="M632.232 233.777C632.232 219.478 643.624 209.31 659.321 209.31C675.017 209.31 686.329 219.43 686.329 233.777C686.329 248.123 674.938 258.243 659.321 258.243C643.703 258.243 632.232 248.028 632.232 233.777ZM635.871 281.439H682.659V439.313H635.95L635.871 281.439Z" fill="#C1F6ED"/>
<path d="M723.738 281.361H761.868L765.236 296.899H766.396C778.788 285.778 794.898 277.532 811.373 277.532C849.614 277.532 873.033 309.148 873.033 357.843C873.033 412.051 840.781 443.143 806.591 443.143C792.992 443.143 780.218 437.185 768.906 426.652L770.495 451.643V497.923H723.738V281.361ZM825.132 358.368C825.132 330.024 816.362 315.837 797.694 315.837C788.067 315.837 779.789 320.142 770.543 329.977V394.845C777.415 401.181 786.393 404.742 795.74 404.838C812.072 404.838 825.132 391.064 825.132 358.368Z" fill="#C1F6ED"/>
<path d="M890.606 421.076L911.657 391.97C925.956 402.789 939.19 408.556 952.409 408.556C966.342 408.556 972.363 403.25 972.363 394.972C972.363 384.566 956.714 379.848 940.461 373.477C921.094 365.994 898.661 353.141 898.661 327.038C898.661 297.63 922.493 277.58 959.034 277.58C983.246 277.58 1001.26 287.367 1014.64 297.582L993.732 325.64C982.484 317.473 971.41 312.151 960.464 312.151C948.373 312.151 942.431 316.917 942.431 324.766C942.431 334.838 957.223 338.699 973.587 344.657C993.589 352.06 1016.13 363.309 1016.13 392.192C1016.13 420.79 993.589 443.143 951.249 443.143C930.42 443.143 906.605 434.103 890.606 421.076Z" fill="#C1F6ED"/>
<path d="M1044.58 413.72C1044.58 397.054 1056.6 384.201 1072.82 384.201C1089.05 384.201 1101.07 397.054 1101.07 413.72C1101.07 430.386 1089.05 443.144 1072.82 443.144C1056.6 443.144 1044.58 430.291 1044.58 413.72Z" fill="#C1F6ED"/>
<path d="M1128.21 283.155L1151.86 281.36H1224.46V318.076H1128.21V283.155ZM1149.23 273.162C1149.23 239.798 1164.69 212.44 1207.33 212.44C1218.09 212.44 1228.75 214.344 1238.84 218.064L1230.42 252.572C1225.22 250.426 1219.66 249.267 1214.04 249.156C1202.62 249.156 1196.02 255.511 1196.02 271.811V439.313H1149.23V273.162Z" fill="#C1F6ED"/>
<path d="M1246.03 233.777C1246.03 219.478 1257.42 209.31 1273.04 209.31C1288.66 209.31 1300.05 219.43 1300.05 233.777C1300.05 248.123 1288.66 258.243 1273.04 258.243C1257.42 258.243 1246.03 248.028 1246.03 233.777ZM1249.65 281.439H1296.46V439.313H1249.68L1249.65 281.439Z" fill="#C1F6ED"/>
<path d="M1337.55 281.362H1375.68L1379.07 301.349H1380.23C1393.52 288.639 1409.44 277.518 1430.97 277.518C1465.32 277.518 1479.97 301.762 1479.97 341.242V439.315H1433.16V347.248C1433.16 324.513 1427.06 317.411 1413.54 317.411C1401.79 317.411 1394.6 322.876 1384.31 332.758V439.315H1337.51L1337.55 281.362Z" fill="#C1F6ED"/>
<path d="M1512.41 395.511C1512.41 362.147 1538.89 344.21 1601.38 337.617C1600.44 323.795 1593.56 314.787 1576.4 314.787C1563.15 314.787 1549.93 320.363 1534.6 329.085L1517.97 298.359C1538.02 286.11 1560.61 277.562 1585.44 277.562C1625.81 277.562 1648.18 300.631 1648.18 349.056V439.313H1610.05L1606.68 423.139H1605.51C1592.23 434.816 1577.31 443.142 1559.56 443.142C1530.69 443.142 1512.41 422.154 1512.41 395.511ZM1601.38 393.43V365.833C1568.11 370.329 1557.24 379.83 1557.24 391.777C1557.24 401.961 1564.25 406.934 1575.37 406.934C1586.03 406.934 1593.05 401.691 1601.36 393.43H1601.38Z" fill="#C1F6ED"/>
<path d="M1687.45 281.361H1725.58L1729.01 301.411H1730.17C1743.47 288.701 1759.38 277.58 1781.01 277.58C1815.36 277.58 1830 301.824 1830 341.305V439.314H1783.2V347.246C1783.2 324.512 1777.08 317.41 1763.58 317.41C1751.82 317.41 1744.62 322.875 1734.33 332.757V439.314H1687.53L1687.45 281.361Z" fill="#C1F6ED"/>
<path d="M1860.39 360.386C1860.39 307.957 1899.06 277.533 1942.68 277.533C1959.61 277.324 1976.02 283.378 1988.76 294.532L1966.66 324.623C1959.08 318.268 1952.75 315.313 1945.24 315.313C1922.73 315.313 1908.27 333.059 1908.27 360.386C1908.27 387.712 1923.33 405.363 1943.67 405.363C1954.04 405.363 1963.96 400.231 1972.15 393.717L1990.49 424.333C1975.12 437.9 1955.54 443.143 1938.41 443.143C1894.4 443.143 1860.39 412.798 1860.39 360.386Z" fill="#C1F6ED"/>
<path d="M2000.14 360.385C2000.14 309.148 2036.68 277.532 2074.66 277.532C2119.65 277.532 2141.94 310.245 2141.94 353.347C2141.97 360.279 2141.32 367.197 2139.99 374.001H2045.49C2049.7 396.911 2065.38 407.364 2086.46 407.364C2098.41 407.364 2109.15 403.742 2120.62 397.038L2136.09 425.254C2119.54 436.512 2100.07 442.696 2080.06 443.048C2035.03 443.143 2000.14 412.623 2000.14 360.385ZM2101.95 343.084C2101.95 325.719 2094.39 313.2 2075.7 313.2C2060.91 313.2 2048.16 323.129 2044.96 343.084H2101.95Z" fill="#C1F6ED"/>
</svg>
