<?xml version="1.0" encoding="UTF-8"?>
<svg width="25px" height="25px" viewBox="0 0 25 25" version="1.1" xmlns="http://www.w3.org/2000/svg" xmlns:xlink="http://www.w3.org/1999/xlink">
    <title>M </title>
    <g id="页面-2" stroke="none" stroke-width="1" fill="none" fill-rule="evenodd">
        <g id="1、Zp-首页-1" transform="translate(-1273.000000, -22.000000)">
            <g id="编组-12备份" transform="translate(1205.000000, 22.000000)">
                <g id="M-" transform="translate(68.000000, 0.000000)">
                    <polygon id="矩形备份-10" points="1.01898942e-13 1 24.0740741 1 24.0740741 23.2222222 1.01898942e-13 23.2222222"></polygon>
                    <path d="M12.037037,0 C18.684909,0 24.0740741,5.38916505 24.0740741,12.037037 C24.0740741,18.684909 18.684909,24.0740741 12.037037,24.0740741 C5.38916505,24.0740741 0,18.684909 0,12.037037 C0,5.38916505 5.38916505,0 12.037037,0 Z M9.25925926,5.55555556 L3.7037037,5.55555556 L3.7037037,8.33333333 L4.6287037,8.33255556 L4.62962963,15.7407407 L3.7037037,15.7407407 L3.7037037,18.5185185 L8.33333333,18.5185185 L8.33333333,15.7407407 L7.40740741,15.7407407 L7.4067037,9.42155556 L11.0746145,17.6556175 L13.5109078,17.6556175 L13.5017037,17.6305556 L13.5219044,17.6309188 L16.6657037,10.5715556 L16.6666667,15.7407407 L15.7407407,15.7407407 L15.7407407,18.5185185 L20.3703704,18.5185185 L20.3703704,15.7407407 L19.4444444,15.7407407 L19.4437037,8.33255556 L21.2962963,8.33333333 L21.2962963,5.55555556 L15.7407407,5.55555556 L12.3487037,14.3495556 L9.25925926,5.55555556 Z" id="形状结合" fill="#FFFFFF"></path>
                </g>
            </g>
        </g>
    </g>
</svg>