<?xml version="1.0" encoding="UTF-8"?>
<svg width="33px" height="33px" viewBox="0 0 33 33" version="1.1" xmlns="http://www.w3.org/2000/svg" xmlns:xlink="http://www.w3.org/1999/xlink">
    <title>website </title>
    <defs>
        <filter id="filter-1">
            <feColorMatrix in="SourceGraphic" type="matrix" values="0 0 0 0 1.000000 0 0 0 0 1.000000 0 0 0 0 1.000000 0 0 0 1.000000 0"></feColorMatrix>
        </filter>
    </defs>
    <g id="页面-1" stroke="none" stroke-width="1" fill="none" fill-rule="evenodd">
        <g id="2、dashboard-1-3A-切图文件-1" transform="translate(-1582.000000, -1677.000000)">
            <g id="last--all-" transform="translate(0.000000, 1647.000000)">
                <g id="website-" transform="translate(260.000000, 30.000000)" filter="url(#filter-1)">
                    <g transform="translate(1322.000000, 0.000000)">
                        <path d="M24.7726533,23.172496 C24.9356162,25.4693931 24.7409013,27.7775855 24.1954199,30.0151464 C21.7457099,31.4240807 18.9662421,32.1639292 16.1377376,32.1599843 C13.9529401,32.1599843 11.8686929,31.7270459 9.96816727,30.9428376 C9.52550685,29.6994934 9.19563854,28.4190993 8.98252566,27.117039 C9.70375712,27.180122 10.4349195,27.212282 11.1722886,27.212282 C15.9713951,27.212282 20.4527127,25.855379 24.2500398,23.5064648 L24.7726533,23.172496 L24.7726533,23.172496 Z M3.42246419,25.9827819 C4.39693355,26.3019077 5.39623015,26.5616612 6.420354,26.7595687 C6.5320766,27.6056231 6.68600552,28.4380713 6.88214075,29.2556765 C5.62808127,28.3779802 4.50472493,27.3281846 3.54535906,26.1373971 L3.42246419,25.9827819 L3.42246419,25.9827819 Z M32.16,18.0170066 C31.7029029,21.7934141 29.9140382,25.2851353 27.1126211,27.8690874 C27.3821141,25.7393035 27.375856,23.5838433 27.0940007,21.4556488 C28.1615722,20.5650652 29.1534207,19.5878971 30.0571324,18.532803 C30.768156,18.6157862 31.4860289,18.4500768 32.088001,18.0640097 L32.16,18.0157697 L32.16,18.0170066 Z M16.01236,7.01706265 C20.3592059,10.310255 23.3452514,15.0755892 24.4064515,20.4129238 C20.5734648,23.2291332 15.9346223,24.7453139 11.1722886,24.738462 C10.3430587,24.738462 9.52375959,24.6939096 8.71687414,24.6060881 C8.67757477,23.8024626 8.68130415,22.9973208 8.7280464,22.194091 C9.94703433,21.931335 10.8895754,20.9667279 11.1206109,19.7455136 C11.3516463,18.5242994 10.8262475,17.2839634 9.78692839,16.5970206 C10.8962292,13.2087 12.806536,10.1356534 15.3569207,7.63676038 L15.782708,7.22981316 L16.01236,7.01829957 L16.01236,7.01706265 Z M6.60655833,3.10220571 L6.88338211,2.90553517 L7.45192602,3.02675349 L7.44820193,3.09231033 C7.44793077,4.39699546 8.26948489,5.5614844 9.50163809,6.00289608 C10.7337913,6.44430775 12.1114189,6.06766277 12.9449539,5.06148956 C13.2677081,5.23218474 13.5867382,5.41153838 13.9008028,5.59707662 C10.8366176,8.50538265 8.56930672,12.1458202 7.31413481,16.1727565 C6.13871307,16.466207 5.242209,17.4145079 5.01838113,18.6011508 C4.79455326,19.7877937 5.28434488,20.9957141 6.27263189,21.6943746 C6.21194298,22.5245343 6.19329888,23.357215 6.21677059,24.1892455 C4.5226223,23.8070601 2.87938748,23.2279241 1.32083793,22.4637399 C0.446642989,20.4483506 -0.00291089767,18.2755612 1.41829753e-05,16.0799874 C1.41829753e-05,10.751329 2.60068239,6.02876227 6.60655833,3.10220571 L6.60655833,3.10220571 Z M24.370452,2.24625594 C27.861422,4.31281633 30.444786,7.61193223 31.6075938,11.4885343 C31.4635958,11.8163185 31.3096669,12.1391551 31.1482898,12.4582809 C29.8898534,12.1522 28.5729952,12.6571636 27.8451548,13.7249039 C27.1173144,14.7926442 27.1316145,16.1985305 27.8810244,17.2513522 C27.4589612,17.7288039 27.0120708,18.1889387 26.54656,18.6280459 C25.2116018,13.4160441 22.20862,8.77939737 17.9923328,5.42019683 C19.8457409,4.08978792 21.8935263,3.05141024 24.0638355,2.34149891 L24.3692106,2.24625594 L24.370452,2.24625594 Z M16.1377376,3.12549524e-06 C17.8930238,3.12549524e-06 19.5837592,0.279550562 21.1652547,0.795346879 C19.2797139,1.609463 17.5033009,2.65446227 15.8770515,3.90620476 C15.1470196,3.43914052 14.3928893,3.01057619 13.6177723,2.62228012 C13.4824648,1.73922793 12.9699428,0.957856292 12.2125502,0.479931865 C13.4962795,0.160364375 14.8145528,-0.000818527232 16.1377376,3.12549524e-06 Z" id="形状" fill="#FFFFFF" fill-rule="nonzero"></path>
                    </g>
                </g>
            </g>
        </g>
    </g>
</svg>