<?xml version="1.0" encoding="UTF-8"?>
<svg width="27px" height="15px" viewBox="0 0 27 15" version="1.1" xmlns="http://www.w3.org/2000/svg" xmlns:xlink="http://www.w3.org/1999/xlink">
    <title>-_jiantou</title>
    <g id="页面-1" stroke="none" stroke-width="1" fill="none" fill-rule="evenodd">
        <g id="5、dashboard-1-3A---supply-new--button-open-开启确认页" transform="translate(-1106.000000, -967.000000)" fill="#ACB8C0" fill-rule="nonzero">
            <g id="farme----blue--wallet备份-7" transform="translate(730.000000, 553.000000)">
                <g id="编组-3" transform="translate(0.000000, 42.000000)">
                    <g id="Borrow-limit" transform="translate(28.000000, 365.000000)">
                        <g id="compound--备份" transform="translate(2.000000, 0.000000)">
                            <g id="-_jiantou" transform="translate(346.800000, 7.000000)">
                                <path d="M24.825,7.91650001 L0.824999991,7.91650001 C0.382333331,7.91650001 0.0250000031,7.55916668 0.0250000031,7.1165 C0.0250000031,6.67383331 0.382333331,6.31650001 0.824999991,6.31650001 L24.825,6.31650001 C25.2676667,6.31650001 25.625,6.67383334 25.625,7.1165 C25.625,7.55916666 25.2676667,7.91650001 24.825,7.91650001 Z" id="路径"></path>
                                <path d="M24.8143333,7.90583333 C24.609,7.90583333 24.401,7.82583334 24.2463333,7.66850001 L18.017,1.36716666 C17.7076666,1.05249999 17.7103333,0.545833322 18.0223333,0.236500003 C18.337,-0.0728333437 18.8436667,-0.0701666719 19.153,0.241833347 L25.3823333,6.54316667 C25.6916667,6.85783333 25.689,7.3645 25.377,7.67383332 C25.2196667,7.82849998 25.017,7.90583333 24.8143333,7.90583333 L24.8143333,7.90583333 Z" id="路径"></path>
                                <path d="M18.513,14.1565 C18.3076667,14.1565 18.0996667,14.0765 17.945,13.9191667 C17.6356666,13.6045 17.6383333,13.0978333 17.9503333,12.7885 L24.2516667,6.55916667 C24.5663333,6.24983332 25.073,6.2525 25.3823333,6.56449999 C25.6916667,6.87916665 25.689,7.38583332 25.377,7.69516667 L19.0756667,13.9245 C18.9183333,14.0791667 18.7156667,14.1565 18.513,14.1565 Z" id="路径"></path>
                            </g>
                        </g>
                    </g>
                </g>
            </g>
        </g>
    </g>
</svg>