<?xml version="1.0" encoding="UTF-8"?>
<svg width="27px" height="27px" viewBox="0 0 27 27" version="1.1" xmlns="http://www.w3.org/2000/svg" xmlns:xlink="http://www.w3.org/1999/xlink">
    <title>问号-圈</title>
    <defs>
        <filter id="filter-1">
            <feColorMatrix in="SourceGraphic" type="matrix" values="0 0 0 0 1.000000 0 0 0 0 1.000000 0 0 0 0 1.000000 0 0 0 1.000000 0"></feColorMatrix>
        </filter>
    </defs>
    <g id="页面-1" stroke="none" stroke-width="1" fill="none" fill-rule="evenodd">
        <g id="3、dashboard-1-3A--my-asset--borrow-" transform="translate(-1055.000000, -506.000000)">
            <g id="问号-圈" transform="translate(316.000000, 126.000000)" filter="url(#filter-1)">
                <g transform="translate(739.000000, 380.000000)">
                    <path d="M13.44,26.88 C6.0172875,26.88 0,20.8627125 0,13.44 C0,6.0172875 6.0172875,0 13.44,0 C20.8627125,0 26.88,6.0172875 26.88,13.44 C26.88,20.8627125 20.8627125,26.88 13.44,26.88 Z M13.243125,22.26 C13.9168575,22.26 14.46375,21.7131075 14.46375,21.039375 C14.46375,20.3656425 13.9168575,19.81875 13.243125,19.81875 C12.5693925,19.81875 12.0225,20.3656425 12.0225,21.039375 C12.0225,21.7131075 12.5693925,22.26 13.243125,22.26 Z M18.4997137,10.3632375 C18.5674125,9.08607 18.1076437,7.85964375 17.19942,6.909525 C16.2263062,5.88611625 14.8498613,5.29969125 13.4254575,5.30248996 C12.07437,5.305335 10.8051037,5.83254 9.85175625,6.7883025 C8.8983825,7.744065 8.37375,9.01275375 8.37375,10.3632113 C8.37375,10.9242525 8.827875,11.3781675 9.38917875,11.3781675 C9.95045625,11.3781675 10.4045812,10.9242525 10.4045812,10.3632113 C10.4045812,8.6941575 11.7641212,7.33527375 13.4311012,7.33243875 L13.4367187,7.33243875 C14.3026537,7.33243875 15.1375612,7.68768 15.7270575,8.307915 C16.2460462,8.8520775 16.5083625,9.54279375 16.4716912,10.256085 C16.4406637,10.8678675 16.4096362,11.44584 14.5903537,13.264335 C13.45365,14.4005138 12.4213162,15.5366925 12.28311,16.943535 C12.2295075,17.5017675 12.6356737,18.0008063 13.1941687,18.0543563 C13.2280312,18.0571912 13.2618412,18.06 13.2957037,18.06 C13.8118837,18.06 14.254695,17.6681138 14.3054887,17.1437175 C14.3703262,16.4755238 15.0106162,15.7143263 16.026045,14.6993438 C18.0286575,12.6976238 18.4292062,11.6685713 18.4997137,10.3632113 L18.4997137,10.3632375 Z" id="形状" fill="#000000" fill-rule="nonzero"></path>
                </g>
            </g>
        </g>
    </g>
</svg>