<?xml version="1.0" encoding="UTF-8"?>
<svg width="18px" height="22px" viewBox="0 0 18 22" version="1.1" xmlns="http://www.w3.org/2000/svg" xmlns:xlink="http://www.w3.org/1999/xlink">
    <!-- Generator: Sketch 52.6 (67491) - http://www.bohemiancoding.com/sketch -->
    <title>safe</title>
    <desc>Created with Sketch.</desc>
    <g id="Page--mobile" stroke="none" stroke-width="1" fill="none" fill-rule="evenodd">
        <g id="3、dashboard---frame-8.29--下拉-1" transform="translate(-380.000000, -769.000000)">
            <g id="抽屉式-copy-2" transform="translate(350.000000, 102.000000)">
                <g id="A" transform="translate(30.000000, 661.000000)">
                    <g id="safe" transform="translate(0.000000, 6.000000)">
                        <path d="M8.79225852,21.984375 C8.56016266,21.9840301 8.33193329,21.9249203 8.12884944,21.8125568 L5.54203125,20.3807386 C2.12652154,18.4824149 0.00896690494,14.8812931 0.0104395799,10.9736932 L0.0104395799,3.55687501 C0.00975333029,2.89840506 0.476134271,2.33194236 1.12248579,2.20619317 L8.60134944,0.029829538 C8.72790535,0.0107266234 8.85661169,0.0107266234 8.98316761,0.029829538 L9.09771306,0.0536931818 L16.4620313,2.20619317 C17.1083828,2.33194236 17.5747637,2.89840506 17.5740775,3.55687501 L17.5740775,10.9736932 C17.5755501,14.8812931 15.4579955,18.4824149 12.0424858,20.3807386 L9.45566761,21.8125568 C9.25258375,21.9249203 9.02435439,21.9840301 8.79225852,21.984375 Z" id="路径" fill="#3656AB"></path>
                        <path d="M7.95703126,13.8039428 C7.75417857,13.8054309 7.55820511,13.7304497 7.40816761,13.5939205 L4.28680397,10.8066477 C3.94677229,10.5035187 3.91685677,9.98213395 4.21998579,9.64210227 C4.52311481,9.30207059 5.04449957,9.27215507 5.38453125,9.57528409 L7.95703126,11.8709659 L12.9683949,7.39414773 C13.3071086,7.09101873 13.827425,7.11986584 14.130554,7.45857956 C14.433683,7.79729328 14.4048359,8.31760962 14.0661222,8.62073863 L8.50589489,13.5939205 C8.35585739,13.7304497 8.15988393,13.8054309 7.95703126,13.8039428 Z" id="路径" fill="#FFFFFF"></path>
                    </g>
                </g>
            </g>
        </g>
    </g>
</svg>