<?xml version="1.0" encoding="UTF-8"?>
<svg width="20px" height="19px" viewBox="0 0 20 19" version="1.1" xmlns="http://www.w3.org/2000/svg" xmlns:xlink="http://www.w3.org/1999/xlink">
    <!-- Generator: Sketch 52.6 (67491) - http://www.bohemiancoding.com/sketch -->
    <title>商店备份</title>
    <desc>Created with Sketch.</desc>
    <g id="Page--mobile" stroke="none" stroke-width="1" fill="none" fill-rule="evenodd">
        <g id="3、dashboard---frame-8.29--下拉" transform="translate(-438.000000, -267.000000)" fill="#3656AB" fill-rule="nonzero">
            <g id="抽屉式-copy-2" transform="translate(350.000000, 102.000000)">
                <g id="M" transform="translate(88.000000, 157.000000)">
                    <g id="商店备份" transform="translate(0.000000, 8.000000)">
                        <path d="M19.6897727,4.30731952 L18.1065285,1.20428921 C17.7326126,0.471115369 16.9790999,0.00963680231 16.1560829,0.00963680231 L3.8138369,0.00963680231 C2.99081991,0.00963680231 2.23730715,0.471115369 1.86339127,1.20428921 L0.280147059,4.30731952 C-0.598640813,6.32193627 0.702250439,8.70268493 2.89298128,8.88058155 C4.11668233,8.98212463 5.30019517,8.41659433 5.98995097,7.40072416 C6.12196455,7.20498432 6.34262428,7.08765019 6.57872103,7.08765019 C6.81481777,7.08765019 7.0354775,7.20498432 7.16749108,7.40072416 C7.7803253,8.30090241 8.81348039,8.89198976 9.98495989,8.89198974 C11.1564394,8.89198972 12.189238,8.30090241 12.8024287,7.40072416 C12.9344423,7.20498432 13.155102,7.08765019 13.3911988,7.08765019 C13.6272955,7.08765019 13.8479552,7.20498432 13.9799688,7.40072416 C14.6697246,8.41659433 15.8532375,8.98212463 17.0769385,8.88058155 C19.2676693,8.70268493 20.5685606,6.32193627 19.6897727,4.30731952 Z M17.3931595,10.2805816 C17.1955177,10.3049727 16.9965785,10.3173543 16.7974376,10.3176582 C15.7274555,10.3180124 14.6876527,9.96300986 13.8412879,9.30838904 C13.5768517,9.10122721 13.2051892,9.10122721 12.9407531,9.30838904 C12.094433,9.96283876 11.054802,10.3178255 9.98495989,10.3176582 C8.91497775,10.3180124 7.87517503,9.96300986 7.02881016,9.30838904 C6.76437402,9.10122721 6.39271154,9.10122721 6.1282754,9.30838904 C5.12097796,10.0872311 3.84691631,10.4368806 2.58317737,10.2812946 C2.38102038,10.2557858 2.17765931,10.318474 2.02495002,10.453374 C1.87224073,10.588274 1.7849427,10.7823477 1.78531521,10.9861074 L1.78531521,17.0527741 C1.78531521,17.8509915 2.41526293,18.4980504 3.19244652,18.4980504 L16.7778298,18.4980504 C17.5550134,18.4980504 18.1849599,17.8509915 18.1849599,17.0527741 L18.1849599,10.9882464 C18.1846034,10.5629345 17.8145499,10.2263926 17.3931595,10.2805816 Z M14.4345143,15.6638258 L5.53504903,15.6638258 C5.14289217,15.6638258 4.82203653,15.3429701 4.82203653,14.9508133 C4.82203653,14.5586564 5.14289215,14.2378008 5.53504903,14.2378008 L14.4345143,14.2378008 C14.8266711,14.2378008 15.1475267,14.5586564 15.1475267,14.9508133 C15.1475267,15.3429701 14.8266711,15.6638258 14.4345143,15.6638258 Z" id="形状"></path>
                    </g>
                </g>
            </g>
        </g>
    </g>
</svg>