<svg width="30" height="30" viewBox="0 0 30 30" fill="none" xmlns="http://www.w3.org/2000/svg">
<path d="M2 21.6518V21.3075C2 21.2114 2.02756 21.1153 2.03543 21.0192C2.17098 19.1452 2.44725 17.2845 2.86181 15.4534C3.35925 13.1113 4.19051 10.8558 5.3292 8.75842C5.45939 8.52683 5.63809 8.32723 5.8526 8.1738C6.93016 7.39085 8.12659 6.79298 9.39429 6.40397C10.0082 6.22778 10.6457 6.12768 11.2714 6.00355C11.3117 5.99676 11.353 5.99974 11.392 6.01226C11.431 6.02479 11.4665 6.0465 11.4957 6.07562C11.5904 6.24143 11.6758 6.41254 11.7515 6.58816C10.758 6.82417 9.79415 7.17479 8.87878 7.63324C7.91465 8.14177 6.65538 9.05873 6.41927 9.41911C12.1332 6.39996 17.8498 6.39996 23.5689 9.41911C22.0717 8.01144 20.2277 7.04282 18.2328 6.61619C18.294 6.50656 18.3479 6.39285 18.3941 6.27583C18.465 6.03959 18.6106 5.99954 18.8349 6.03157C20.523 6.28197 22.1409 6.88893 23.5847 7.81343C24.075 8.06897 24.4843 8.46043 24.7653 8.94261C25.5674 10.4889 26.2109 12.1152 26.6856 13.7957C27.1691 15.4497 27.5192 17.141 27.7324 18.8529C27.8308 19.6538 27.9134 20.4906 28 21.3075V21.6518C27.6931 21.9602 27.4058 22.2925 27.0752 22.5808C25.3539 24.0453 23.2454 24.9592 21.015 25.2075C20.791 25.2705 20.5524 25.2508 20.3413 25.1518C20.1303 25.0529 19.9605 24.8811 19.862 24.667C19.6986 24.4089 19.5213 24.1602 19.3307 23.9222C21.1905 23.2809 22.8618 22.1738 24.1907 20.7029C24.1536 20.709 24.1186 20.7241 24.0884 20.7469C22.6211 21.8119 20.9636 22.575 19.2087 22.9932C16.9658 23.5162 14.6475 23.6153 12.3693 23.2855C10.4601 23.0432 8.61992 22.4055 6.96231 21.4116C6.6042 21.1914 6.25004 20.9591 5.89194 20.7309C7.19734 22.1943 8.84657 23.2966 10.685 23.9342C10.3899 24.3346 10.1105 24.711 9.84683 25.0914C9.81195 25.15 9.76087 25.1968 9.69998 25.226C9.63909 25.2552 9.57107 25.2655 9.50447 25.2556C8.41513 25.1777 7.34138 24.9487 6.31301 24.5749C4.65265 23.9933 3.16733 22.9866 2 21.6518V21.6518ZM13.2272 16.6586C13.171 16.3471 13.0907 16.0404 12.9872 15.7417C12.8825 15.4417 12.7073 15.1724 12.477 14.957C12.2467 14.7416 11.9682 14.5867 11.6656 14.5058C11.3631 14.4249 11.0457 14.4204 10.741 14.4927C10.4364 14.5651 10.1538 14.712 9.91766 14.9208C9.42454 15.3939 9.13504 16.046 9.11219 16.7352C9.08935 17.4244 9.335 18.0949 9.79567 18.6007C10.0875 18.9316 10.4865 19.1448 10.9199 19.2014C11.3533 19.258 11.7923 19.1542 12.1568 18.909C12.8848 18.4325 13.1721 17.6997 13.2272 16.6586ZM16.7886 16.8068C16.7823 17.2601 16.8922 17.7072 17.1073 18.1042C17.2302 18.3599 17.4066 18.5853 17.6242 18.7643C17.8417 18.9433 18.0952 19.0716 18.3667 19.1403C18.6383 19.209 18.9213 19.2164 19.1959 19.1619C19.4706 19.1074 19.7301 18.9924 19.9564 18.8249C20.2438 18.5858 20.4763 18.2857 20.6377 17.9456C20.7991 17.6055 20.8854 17.2335 20.8906 16.8559C20.8959 16.4782 20.8199 16.104 20.6681 15.7593C20.5162 15.4147 20.2921 15.108 20.0115 14.8608C19.7334 14.614 19.3858 14.463 19.0183 14.4292C18.6509 14.3954 18.2823 14.4806 17.9652 14.6726C17.5963 14.8851 17.2916 15.1964 17.0841 15.5726C16.8767 15.9488 16.7745 16.3756 16.7886 16.8068V16.8068Z" fill="white"/>
</svg>
