<?xml version="1.0" encoding="UTF-8"?>
<svg width="18px" height="18px" viewBox="0 0 18 18" version="1.1" xmlns="http://www.w3.org/2000/svg" xmlns:xlink="http://www.w3.org/1999/xlink">
    <!-- Generator: Sketch 52.6 (67491) - http://www.bohemiancoding.com/sketch -->
    <title>编组 3</title>
    <desc>Created with Sketch.</desc>
    <g id="Page--mobile" stroke="none" stroke-width="1" fill="none" fill-rule="evenodd">
        <g id="3、dashboard---frame-8.29--下拉" transform="translate(-438.000000, -204.000000)">
            <g id="抽屉式-copy-2" transform="translate(350.000000, 102.000000)">
                <g id="S" transform="translate(88.000000, 94.000000)">
                    <g id="编组-3" transform="translate(0.000000, 8.000000)">
                        <rect id="矩形" fill="#3656AB" x="0" y="0" width="18" height="18" rx="2"></rect>
                        <path d="M13.5825784,6.41748239 C13.7351177,6.18729468 14.0453792,6.12434819 14.2755669,6.27688746 C14.4801782,6.41247793 14.5526483,6.67268844 14.4590935,6.89050723 L14.4161618,6.96987597 L11.4208913,11.2964833 C11.2844417,11.502391 11.0220195,11.5742832 10.8036671,11.4784532 L10.7241829,11.4345891 L8.183,9.718 L4.47881797,16.2935154 C4.31778754,16.579349 3.93809436,16.6292557 3.70761783,16.4191287 L3.64331925,16.3482655 L0.650284582,12.3610627 C0.484505851,12.1402188 0.529144981,11.8267992 0.749988871,11.6610205 C0.94629455,11.5136616 1.21574644,11.5325588 1.38963281,11.6936832 L1.45003105,11.7607248 L3.983,15.134 L7.57826246,8.7545811 C7.70571498,8.52834927 7.98070004,8.44165226 8.21023596,8.540038 L8.29380459,8.58569737 L10.866,10.323 L13.5825784,6.41748239 Z" id="路径-13" fill="#FFFFFF"></path>
                        <path d="M16.2885514,2.10156987 L18.1705174,5.8655019 C18.4175066,6.35948039 18.2172823,6.96015343 17.7233038,7.20714268 C17.5844483,7.2765704 17.4313353,7.31271549 17.2760902,7.31271549 L13.5121581,7.31271549 C12.9598734,7.31271549 12.5121581,6.86500024 12.5121581,6.31271549 C12.5121581,6.1574704 12.5483032,6.00435733 12.617731,5.8655019 L14.499697,2.10156987 C14.7466862,1.60759138 15.3473593,1.40736703 15.8413378,1.65435628 C16.0348652,1.75111998 16.1917877,1.90804247 16.2885514,2.10156987 Z" id="三角形" fill="#FFFFFF" transform="translate(15.394234, 4.430640) rotate(35.000000) translate(-15.394234, -4.430640) "></path>
                    </g>
                </g>
            </g>
        </g>
    </g>
</svg>