<?xml version="1.0" encoding="UTF-8"?>
<svg width="38px" height="38px" viewBox="0 0 38 38" version="1.1" xmlns="http://www.w3.org/2000/svg" xmlns:xlink="http://www.w3.org/1999/xlink">
    <title>分类_备份</title>
    <g id="Page--mobile" stroke="none" stroke-width="1" fill="none" fill-rule="evenodd">
        <g id="1、dashboard--Asset-Supply" transform="translate(-672.000000, -89.000000)" fill="#FFFFFF" fill-rule="nonzero">
            <g id="分类_备份" transform="translate(672.000000, 89.000000)">
                <path d="M11.3019362,17.7426142 L6.38197387,17.7426142 C2.89327331,17.7426142 0.0307497506,14.8800906 0.0307497506,11.3913901 L0.0307497506,6.38197387 C0.0307497506,2.89327331 2.89327331,0.0307497506 6.38197387,0.0307497506 L11.3019362,0.0307497506 C14.7906368,0.0307497506 17.6531603,2.89327331 17.6531603,6.38197387 L17.6531603,11.3019362 C17.7426142,14.8800906 14.8800906,17.7426142 11.3019362,17.7426142 L11.3019362,17.7426142 Z M6.38197387,2.71436557 C4.32453506,2.71436557 2.71436557,4.41398891 2.71436557,6.38197387 L2.71436557,11.3019362 C2.71436557,13.359375 4.41398891,14.9695445 6.38197387,14.9695445 L11.3019362,14.9695445 C13.359375,14.9695445 14.9695445,13.2699212 14.9695445,11.3019362 L14.9695445,6.38197387 C14.9695445,4.32453506 13.2699212,2.71436557 11.3019362,2.71436557 L6.38197387,2.71436557 Z M31.5185087,17.7426142 L26.5985464,17.7426142 C23.1098458,17.7426142 20.2473223,14.8800906 20.2473223,11.3913901 L20.2473223,6.38197387 C20.2473223,2.89327331 23.1098458,0.0307497506 26.5985464,0.0307497506 L31.5185087,0.0307497506 C35.0072093,0.0307497506 37.8697328,2.89327331 37.8697328,6.38197387 L37.8697328,11.3019362 C37.8697328,14.8800906 35.0072092,17.7426142 31.5185087,17.7426142 Z M26.5985464,2.71436557 C24.5411076,2.71436557 22.9309381,4.41398891 22.9309381,6.38197387 L22.9309381,11.3019362 C22.9309381,13.359375 24.6305614,14.9695445 26.5985464,14.9695445 L31.5185087,14.9695445 C33.5759475,14.9695445 35.186117,13.2699212 35.186117,11.3019362 L35.186117,6.38197387 C35.186117,4.32453506 33.4864936,2.71436557 31.5185087,2.71436557 L26.5985464,2.71436557 L26.5985464,2.71436557 Z M11.3019362,37.9591867 L6.38197387,37.9591867 C2.89327331,37.9591867 0.0307497506,35.0966631 0.0307497506,31.6079626 L0.0307497506,26.6880002 C0.0307497506,23.1992997 2.89327331,20.3367761 6.38197387,20.3367761 L11.3019362,20.3367761 C14.7906368,20.3367761 17.6531603,23.1992997 17.6531603,26.6880002 L17.6531603,31.6079626 C17.7426142,35.0966631 14.8800906,37.9591867 11.3019362,37.9591867 L11.3019362,37.9591867 Z M6.38197387,22.9309381 C4.32453506,22.9309381 2.71436557,24.6305614 2.71436557,26.5985464 L2.71436557,31.5185087 C2.71436557,33.5759475 4.41398891,35.186117 6.38197387,35.186117 L11.3019362,35.186117 C13.359375,35.186117 14.9695445,33.4864936 14.9695445,31.5185087 L14.9695445,26.5985464 C14.9695445,24.5411076 13.2699212,22.9309381 11.3019362,22.9309381 L6.38197387,22.9309381 L6.38197387,22.9309381 Z" id="形状"></path>
                <path d="M35.5439325,24.9883769 L22.8414842,24.9883769 C22.1258533,24.9883769 21.4996763,24.3621999 21.4996763,23.646569 C21.4996763,22.9309381 22.1258533,22.3047611 22.8414842,22.3047611 L35.6333863,22.3047611 C36.3490172,22.3047611 36.9751942,22.9309381 36.9751942,23.646569 C36.9751942,24.3621999 36.2595633,24.9883769 35.5439325,24.9883769 Z M33.3970398,30.9817856 L22.8414842,30.9817856 C22.1258533,30.9817856 21.4996763,30.3556085 21.4996763,29.6399777 C21.4996763,28.9243468 22.1258533,28.2981697 22.8414842,28.2981697 L33.3970398,28.2981697 C34.1126707,28.2981697 34.7388477,28.9243468 34.7388477,29.6399777 C34.7388477,30.3556085 34.1126707,30.9817856 33.3970398,30.9817856 Z M28.119262,37.0646481 L22.8414842,37.0646481 C22.1258533,37.0646481 21.4996763,36.438471 21.4996763,35.7228401 C21.4996763,35.0072092 22.1258533,34.3810322 22.8414842,34.3810322 L28.119262,34.3810322 C28.8348929,34.3810322 29.4610699,35.0072092 29.4610699,35.7228401 C29.4610699,36.438471 28.8348929,37.0646481 28.119262,37.0646481 Z" id="形状"></path>
            </g>
        </g>
    </g>
</svg>