<?xml version="1.0" encoding="UTF-8"?>
<svg width="41px" height="40px" viewBox="0 0 41 40" version="1.1" xmlns="http://www.w3.org/2000/svg" xmlns:xlink="http://www.w3.org/1999/xlink">
    <title>zichanxinxishenhe备份</title>
    <g id="Page--mobile" stroke="none" stroke-width="1" fill="none" fill-rule="evenodd">
        <g id="3、dashboard---frame-" transform="translate(-40.000000, -627.000000)">
            <g id="zichanxinxishenhe备份" transform="translate(40.000000, 628.000000)">
                <path d="M38.610432,10.584 C39.7327453,10.584 40.64256,11.4938147 40.64256,12.616128 L40.64256,36.0729815 C40.64256,37.1952948 39.7327453,38.1051095 38.610432,38.1051095 L2.032128,38.1051095 C0.909814696,38.1051095 0,37.1952948 0,36.0729815 L0,12.616128 C0,11.4938147 0.909814696,10.584 2.032128,10.584 L38.610432,10.584 Z" id="路径" fill="#204E79" fill-rule="nonzero"></path>
                <path d="M1.9845,9.25663259 L1.9845,7.938 C1.9845,6.47665455 3.16915455,5.292 4.6305,5.292 L35.4190053,5.292 C36.8803508,5.292 38.0650053,6.47665455 38.0650053,7.938 C38.0650053,7.94123149 38.0649994,7.94446298 38.0649876,7.94769445 L38.0601918,9.25663259 L38.0601918,9.25663259" id="路径-17" stroke="#204E79" stroke-width="1.4" stroke-linecap="round" stroke-linejoin="round"></path>
                <path d="M5.9535,3.3075 L5.9535,2.1168 C5.9535,0.947723642 6.90122364,2.14755843e-16 8.0703,0 L32.9351893,0 C34.1042657,-2.29145263e-15 35.0519893,0.947723642 35.0519893,2.1168 C35.0519893,2.11929913 35.0519849,2.12179826 35.051976,2.12429738 L35.0477853,3.3075 L35.0477853,3.3075" id="路径-17" stroke="#204E79" stroke-width="1.4" stroke-linecap="round" stroke-linejoin="round"></path>
                <path d="M26.1631514,23.6931846 C26.3493725,23.511351 26.4561853,23.2622064 26.46,23.0007753 C26.4561801,22.7390835 26.3494613,22.4896443 26.1633266,22.307346 C25.977192,22.1250477 25.7268934,22.0248278 25.4675082,22.0287392 L22.8992179,22.0287392 L25.4617041,19.5195979 C25.6479809,19.3400627 25.753359,19.0914671 25.753359,18.8315603 C25.753359,18.5716535 25.6479809,18.3230579 25.4617041,18.1435227 C25.0693378,17.7661591 24.4523933,17.7661591 24.0600271,18.1435227 L20.4237923,21.7096069 L16.7846556,18.1435227 C16.3922893,17.7661591 15.7753448,17.7661591 15.3829786,18.1435227 C15.1967018,18.3230579 15.0913236,18.5716535 15.0913236,18.8315603 C15.0913236,19.0914671 15.1967018,19.3400627 15.3829786,19.5195979 L17.9454648,22.0287392 L15.5454918,22.0287392 C15.2861066,22.0248278 15.035808,22.1250477 14.8496734,22.307346 C14.6635387,22.4896443 14.5568199,22.7390835 14.553,23.0007753 C14.553,23.5365663 14.9999115,23.9698836 15.5454918,23.9698836 L19.5125572,23.9698836 L19.5125572,25.9110279 L15.5454918,25.9110279 C15.2861066,25.9071165 15.035808,26.0073364 14.8496734,26.1896347 C14.6635387,26.371933 14.5568199,26.6213722 14.553,26.883064 C14.553,27.418855 14.9970095,27.8551001 15.5454918,27.8551001 L19.5125572,27.8551001 L19.5125572,30.1212324 C19.5125572,30.6570234 19.9565667,31.0903407 20.505049,31.0903407 C20.7644377,31.0950414 21.0150494,30.9955704 21.201731,30.8138185 C21.3884126,30.6320666 21.4958657,30.3829284 21.5004428,30.1212324 L21.5004428,27.8551001 L25.4675082,27.8551001 C25.7268934,27.8590115 25.977192,27.7587916 26.1633266,27.5764933 C26.3494613,27.394195 26.4561801,27.1447558 26.46,26.883064 C26.4569506,26.6211221 26.3504737,26.3712251 26.1641685,26.1887598 C25.9778633,26.0062944 25.7271183,25.906332 25.4675082,25.9110279 L21.5004428,25.9110279 L21.5004428,23.9698836 L25.4675082,23.9698836 C25.726622,23.9745808 25.9769303,23.8750182 26.1631514,23.6931846 Z" id="路径" fill="#FFFFFF"></path>
            </g>
        </g>
    </g>
</svg>