<?xml version="1.0" encoding="UTF-8"?>
<svg width="20px" height="19px" viewBox="0 0 20 19" version="1.1" xmlns="http://www.w3.org/2000/svg" xmlns:xlink="http://www.w3.org/1999/xlink">
    <!-- Generator: Sketch 52.6 (67491) - http://www.bohemiancoding.com/sketch -->
    <title>监控面板-面性</title>
    <desc>Created with Sketch.</desc>
    <g id="Page--mobile" stroke="none" stroke-width="1" fill="none" fill-rule="evenodd">
        <g id="3、dashboard---frame-8.29--下拉" transform="translate(-438.000000, -140.000000)" fill="#3656AB" fill-rule="nonzero">
            <g id="抽屉式-copy-2" transform="translate(350.000000, 102.000000)">
                <g id="D" transform="translate(88.000000, 30.000000)">
                    <g id="监控面板-面性" transform="translate(0.000000, 8.000000)">
                        <path d="M18.6517857,0.00223214286 L1.30357143,0.00223214286 C0.587053571,0.00223214286 0.00669642857,0.582589286 0.00669642857,1.29910714 L0.00669642857,12.0892857 C0.00669642857,12.8058036 0.587053571,13.3861607 1.30357143,13.3861607 L9.24776786,13.3861607 L9.24776786,17.2142857 L2.640625,17.2142857 C2.23660714,17.2142857 1.90848214,17.5424107 1.90848214,17.9464286 C1.90848214,18.3504464 2.23660714,18.6785714 2.640625,18.6785714 L17.3147321,18.6785714 C17.71875,18.6785714 18.046875,18.3504464 18.046875,17.9464286 C18.046875,17.5424107 17.71875,17.2142857 17.3147321,17.2142857 L10.7098214,17.2142857 L10.7098214,13.3839286 L18.6540179,13.3839286 C19.3705357,13.3839286 19.9508929,12.8035714 19.9508929,12.0870536 L19.9508929,1.29910714 C19.9486607,0.582589286 19.3683036,0.00223214286 18.6517857,0.00223214286 Z M17.6227679,8.22098214 C17.4196429,8.43303571 17.0848214,8.44196429 16.8727679,8.24107143 L14.9308036,6.39732143 L12.1629464,10.3415179 C12.0625,10.484375 11.8995536,10.5669643 11.7276786,10.5669643 C11.7008929,10.5669643 11.6741071,10.5647321 11.6473214,10.5602679 C11.4486607,10.5290179 11.2834821,10.3883929 11.2209821,10.1941964 L9.43080357,4.515625 L7.12946429,7.67857143 C7.03571429,7.80803571 6.88839286,7.88839286 6.72991071,7.89732143 C6.56919643,7.90848214 6.41517857,7.84375 6.30803571,7.72544643 L5.20089286,6.515625 L3.04910714,8.22544643 C2.81919643,8.40848214 2.484375,8.37053571 2.30357143,8.140625 C2.12053571,7.91071429 2.15848214,7.57589286 2.38839286,7.39508929 L4.92857143,5.37723214 C5.14732143,5.203125 5.46205357,5.22991071 5.64955357,5.43526786 L6.65401786,6.53125 L9.19196429,3.04241071 C9.31026786,2.87946429 9.50892857,2.79910714 9.70758929,2.83035714 C9.90625,2.86160714 10.0691964,3.00446429 10.1294643,3.19419643 L11.9129464,8.85267857 L14.4174107,5.28571429 C14.5066964,5.15848214 14.6450893,5.078125 14.7991071,5.0625 C14.953125,5.046875 15.1049107,5.10044643 15.2165179,5.20535714 L17.6049107,7.47321429 C17.8147321,7.67410714 17.8236607,8.00892857 17.6227679,8.22098214 Z" id="形状"></path>
                    </g>
                </g>
            </g>
        </g>
    </g>
</svg>