<?xml version="1.0" encoding="UTF-8"?>
<svg width="24px" height="25px" viewBox="0 0 24 25" version="1.1" xmlns="http://www.w3.org/2000/svg" xmlns:xlink="http://www.w3.org/1999/xlink">
    <!-- Generator: Sketch 52.6 (67491) - http://www.bohemiancoding.com/sketch -->
    <title>Ti</title>
    <desc>Created with Sketch.</desc>
    <g id="Page--mobile" stroke="none" stroke-width="1" fill="none" fill-rule="evenodd">
        <g id="3、dashboard---frame-8.29--下拉" transform="translate(-482.000000, -434.000000)" fill="#3656AB" fill-rule="nonzero">
            <g id="抽屉式-copy-2" transform="translate(350.000000, 102.000000)">
                <g id="logo-" transform="translate(101.000000, 332.000000)">
                    <path d="M44.9144209,7.20458033 C43.7731214,7.59617792 43.0333096,8.70110829 43.1059862,9.90552984 L43.132512,10.3650501 L42.6683107,10.3088779 C40.9944032,10.0975042 39.4396613,9.33112083 38.2525469,8.13220279 L37.6401132,7.52366997 L37.4840791,7.97382822 C37.1378395,8.93369846 37.3604012,10.0066994 38.0598448,10.7496741 C38.4296455,11.1436601 38.3461673,11.1998323 37.707988,10.9665614 C37.4840791,10.8885444 37.2898167,10.8339325 37.2710926,10.863579 C37.2996902,11.2999951 37.4131109,11.7266476 37.6050055,12.1196531 C37.8995114,12.6379803 38.3420354,13.0565988 38.8759029,13.3218955 L39.3307422,13.5387828 L38.7924247,13.5458044 C38.271271,13.5458044 38.253327,13.5559466 38.3102795,13.7525495 C38.6384469,14.4922385 39.2710558,15.0534192 40.044598,15.2910453 L40.6203637,15.4884284 L40.1202745,15.7895741 C39.3627666,16.2263295 38.5072998,16.4648834 37.6330917,16.4831455 C37.3768881,16.4737632 37.1206232,16.5000199 36.8716455,16.5611625 C37.4273314,16.9176489 38.0295922,17.195676 38.6613561,17.3873629 C40.7001104,17.9907356 42.8965226,17.7398377 44.7466843,16.6922311 C46.1169656,15.8143853 47.1932136,14.546581 47.8369388,13.0519566 C48.1858713,12.1524027 48.3983459,11.2057334 48.4673164,10.2433436 C48.4673164,9.81190941 48.4954025,9.75495698 49.0134356,9.24004459 C49.2484536,9.01615448 49.4657338,8.77435525 49.6633174,8.51682674 C49.7561577,8.33894792 49.7413344,8.33894792 49.2732323,8.49888282 C48.4860405,8.7805243 48.3729158,8.74385629 48.7630009,8.321004 C49.0441313,8.03667623 49.2595662,7.69421721 49.3941587,7.31770502 C49.3941587,7.29039906 49.2552884,7.33720927 49.097694,7.42068749 C48.8350966,7.54952021 48.5621118,7.65599994 48.2816358,7.73899697 L47.7799864,7.89893188 L47.3259273,7.58686376 C47.0802348,7.41954502 46.8160991,7.28106358 46.5387354,7.17415368 C46.0029811,7.04487922 45.4427237,7.05805859 44.9136407,7.21238203 M54.9583331,12.3958334 C54.9583331,18.8391553 49.7349887,24.0624998 43.2916667,24.0624998 C36.8483448,24.0624998 31.6250003,18.8391553 31.6250003,12.3958334 C31.6245864,9.3015142 32.8536166,6.33381144 35.0416307,4.14579734 C37.2296448,1.95778324 40.1973475,0.728753052 43.2916667,0.72916698 C49.7349887,0.72916698 54.9583331,5.95251145 54.9583331,12.3958334 Z" id="Ti"></path>
                </g>
            </g>
        </g>
    </g>
</svg>