<?xml version="1.0" encoding="UTF-8"?>
<svg width="24px" height="24px" viewBox="0 0 24 24" version="1.1" xmlns="http://www.w3.org/2000/svg" xmlns:xlink="http://www.w3.org/1999/xlink">
    <!-- Generator: Sketch 52.6 (67491) - http://www.bohemiancoding.com/sketch -->
    <title>telegram blue </title>
    <desc>Created with Sketch.</desc>
    <g id="Page--mobile" stroke="none" stroke-width="1" fill="none" fill-rule="evenodd">
        <g id="3、dashboard---frame-8.29--下拉-1" transform="translate(-534.000000, -767.000000)" fill="#3656AB" fill-rule="nonzero">
            <g id="抽屉式-copy-2" transform="translate(350.000000, 102.000000)">
                <g id="logo-" transform="translate(184.000000, 665.000000)">
                    <g id="telegram-blue-" transform="translate(0.000000, 0.729167)">
                        <path d="M23.22432,11.61216 C23.22432,18.0278784 18.0278784,23.22432 11.61216,23.22432 C5.1964416,23.22432 7.65609798e-13,18.0278784 7.65609798e-13,11.61216 C7.65609798e-13,5.1964416 5.1964416,-7.10542736e-15 11.61216,-7.10542736e-15 C18.0278784,-7.10542736e-15 23.22432,5.1964416 23.22432,11.61216 Z M10.446214,13.672054 L13.772159,17.4878243 C14.3068028,17.7767431 14.6956346,17.6322837 14.8317257,16.9966624 L15.8662296,7.61619 C16.0606455,6.83610933 15.564885,6.48940681 15.0496828,6.72054182 L5.49040218,11.7166119 C4.72245935,12.0247919 4.73218015,12.4485394 5.35431105,12.6315213 L10.446214,13.672054 Z" id="形状结合"></path>
                    </g>
                </g>
            </g>
        </g>
    </g>
</svg>