<?xml version="1.0" encoding="UTF-8"?>
<svg width="60px" height="57px" viewBox="0 0 60 57" version="1.1" xmlns="http://www.w3.org/2000/svg" xmlns:xlink="http://www.w3.org/1999/xlink">
    <title>apply icon</title>
    <g id="页面-1" stroke="none" stroke-width="1" fill="none" fill-rule="evenodd">
        <g id="3、dashboard-1-3A--Borrow-直角" transform="translate(-362.000000, -661.000000)">
            <g id="apply-icon" transform="translate(363.000000, 661.000000)">
                <g id="编组-2" transform="translate(19.980022, 20.508741)">
                    <circle id="椭圆形" fill="#204E79" cx="9.984" cy="9.984" r="9.984"></circle>
                    <path d="M7.89179904,1.536 C8.60662605,1.536 9.19806399,2.09216711 9.24188784,2.8056495 L9.24437055,2.88807497 L9.244,3.072 L11.2751584,3.072 C14.2160026,3.072 15.2358284,5.95028489 14.3346357,7.94640629 C15.8043758,8.57791503 16.7099838,10.0028293 16.7133135,11.6549627 C16.7172784,13.8442019 15.135306,15.6213141 12.750927,15.6863606 L12.615372,15.6878503 L9.244,15.687 L9.24437055,16.3561914 C9.24939769,17.0905445 8.66733606,17.6946452 7.93330298,17.7169009 C7.1992699,17.7391566 6.58167876,17.1714291 6.54220678,16.4381202 L6.53972412,16.3561914 L6.539,15.687 L5.19261452,15.6878503 C4.46173319,15.6881357 3.8629284,15.1075482 3.84064025,14.3770068 C3.81835209,13.6464653 4.38064972,13.0304536 5.1101891,12.986183 L5.19261452,12.9837004 L6.539,12.983 L6.5384154,9.10100738 C6.53431582,9.06446657 6.53166596,9.02747368 6.53052551,8.99008617 C6.52856389,8.92577813 6.53113078,8.86236319 6.53794082,8.80015181 L6.539,5.776 L5.20248973,5.77664643 C4.46788808,5.78229869 3.86318091,5.20036115 3.84064795,4.46608341 C3.81811499,3.73180568 4.3860018,3.11388446 5.11956777,3.07448271 L5.20199319,3.072 L6.539,3.072 L6.53972412,2.88807497 C6.53972412,2.1413446 7.14506867,1.536 7.89179904,1.536 Z M9.244,12.983 L12.615372,12.9837004 C13.5215552,12.9837004 14.0101493,12.4474385 14.0086596,11.6599281 C14.00717,10.8952585 13.5419132,10.3525416 12.7126935,10.3043774 L12.615372,10.3009016 L9.244,10.3 L9.244,12.983 Z M9.244,7.112 L11.2751584,7.11233563 C12.1450942,7.11233563 12.1704177,5.85410648 11.3521219,5.78012222 L11.2751584,5.77664643 L9.244,5.776 L9.244,7.112 Z" id="形状结合备份" fill="#FFFFFF"></path>
                </g>
                <path d="M4.9436264,45.6468794 L0.570968239,18.9573527 C0.303090132,17.3222969 1.4114066,15.7796642 3.04646235,15.5117861 C3.20680548,15.4855164 3.36901776,15.4723164 3.53149857,15.4723164 L54.9164667,15.4723164 C56.5733209,15.4723164 57.9164667,16.8154622 57.9164667,18.4723164 C57.9164667,18.6367701 57.9029442,18.8009453 57.876036,18.9631826 L53.4587942,45.5959699 L53.4587942,45.5959699" id="路径-4" stroke="#204E79" stroke-width="2" stroke-linecap="round" stroke-linejoin="round"></path>
                <circle id="椭圆形" fill="#204E79" cx="43.0200217" cy="48.348741" r="8.64"></circle>
                <circle id="椭圆形备份-3" fill="#204E79" cx="16.1400217" cy="48.348741" r="8.64"></circle>
                <line x1="23.8890611" y1="48.1724463" x2="35.3580295" y2="48.1150826" id="路径-5" stroke="#204E79" stroke-width="2"></line>
                <path d="M13.701156,15.4723164 L28.6228314,1.7856224 C29.7241082,0.775491997 31.415041,0.775491997 32.5163177,1.7856224 L47.4379932,15.4723164 L47.4379932,15.4723164 L13.701156,15.4723164 Z" id="路径-6" fill="#204E79"></path>
            </g>
        </g>
    </g>
</svg>