<?xml version="1.0" encoding="UTF-8"?>
<svg width="29px" height="33px" viewBox="0 0 29 33" version="1.1" xmlns="http://www.w3.org/2000/svg" xmlns:xlink="http://www.w3.org/1999/xlink">
    <title>盾牌,安全,保护备份</title>
    <g id="页面--markets-" stroke="none" stroke-width="1" fill="none" fill-rule="evenodd">
        <g id="Audit---logo" transform="translate(-1.000000, -1.000000)" fill="#FFFFFF" fill-rule="nonzero">
            <g id="盾牌,安全,保护备份" transform="translate(1.000000, 1.000000)">
                <path d="M14.350142,2.04545455 C15.3504972,2.04545455 16.3572443,2.14772727 17.3384233,2.3490767 C18.3291903,2.55362216 19.3039773,2.86044034 20.2340199,3.2631392 L26.6260888,6.03089489 L26.6260888,14.0912642 C26.6292614,15.9992898 26.3064631,17.8785511 25.6640625,19.6747159 C25.03125,21.4549006 24.1299716,23.1136364 22.9825994,24.606179 L22.9794034,24.612571 L22.9762074,24.6189631 C21.8288352,26.1370739 20.4545455,27.4474432 18.8884943,28.5181108 C17.4950284,29.4673295 15.9705256,30.1704545 14.3533381,30.6115057 C12.7297585,30.1704545 11.1988636,29.4609375 9.8022017,28.5085227 C8.23615057,27.4378551 6.8618608,26.1274858 5.71448864,24.609375 L5.71129261,24.606179 L5.70809659,24.602983 C4.5703125,23.1136364 3.67542614,21.4580966 3.04580966,19.684304 L3.04580966,19.6779119 C2.40340909,17.8817472 2.0806108,16.0024858 2.08690974,14.0944602 L2.08690974,6.03409091 L8.47585227,3.26633523 C9.40589489,2.86363636 10.3806818,2.55681818 11.3714489,2.35227273 C12.3430398,2.14772727 13.3465909,2.04545455 14.350142,2.04545455 M14.350142,0 C12.0713778,0 9.78941761,0.463423295 7.65447443,1.39026989 L0.031878264,4.68856534 L0.031878264,14.0912642 C0.0255681818,16.2325994 0.393110795,18.3547585 1.11221591,20.3682528 C1.80894886,22.3401989 2.80930398,24.1875 4.07492898,25.8462358 C5.35333807,27.5369318 6.89701705,29.0071023 8.64204545,30.2024148 C10.3774858,31.3881392 12.3078835,32.2446733 14.346946,32.7272727 C16.3796165,32.2446733 18.3068182,31.3913352 20.0358665,30.2120028 C21.7840909,29.0198864 23.3245739,27.5465199 24.602983,25.8558239 C25.878196,24.193892 26.8849432,22.3401989 27.5880682,20.3618608 C28.3071733,18.3483665 28.6715199,16.2230114 28.6683447,14.0848722 L28.6683447,4.68856534 L21.0426136,1.38707386 C18.9076705,0.463423295 16.6289062,0 14.350142,0 Z" id="形状"></path>
                <path d="M14.350142,4.09090909 C16.1015625,4.09090909 17.8082386,4.44566761 19.4190341,5.14240057 L25.3775199,7.37642045 L25.3775199,14.0944602 C25.3806108,15.7659801 25.0993608,17.4119318 24.5368608,18.987571 L24.5368608,18.9939631 C23.9775568,20.5696023 23.1785511,22.0429688 22.1622159,23.3661222 L22.1526278,23.3789063 L22.1430398,23.3916903 C21.1267045,24.7276278 19.1154119,25.8877841 17.7315341,26.8306108 C16.6800426,27.5465199 15.5454545,28.0994318 14.346946,28.4829545 C13.1420455,28.0994318 12.0042614,27.5433239 10.9495739,26.8210227 C9.56569602,25.875 7.55120739,24.7180398 6.53806818,23.3757102 L6.53167614,23.3661222 L6.52528409,23.3565341 C5.51534091,22.0365767 4.72272727,20.5696023 4.16661932,18.9971591 L4.1634233,18.990767 C3.6009233,17.4183239 3.3196733,15.7723722 3.32278985,14.1008523 L3.32278985,7.37642045 L9.27805398,5.14240057 C10.8888494,4.44566761 12.5955256,4.09090909 14.350142,4.09090909 Z M11.52,13.464 L10.672,13.464 L10.672,16.04 C10.672,17.152 11.168,17.712 12.168,17.712 C12.688,17.712 13.12,17.488 13.472,17.04 L13.472,17.6 L14.32,17.6 L14.32,13.464 L13.472,13.464 L13.472,15.992 C13.4,16.296 13.264,16.544 13.072,16.728 C12.88,16.904 12.68,17 12.456,17 C12.128,17 11.888,16.912 11.744,16.752 C11.592,16.592 11.52,16.336 11.52,15.984 L11.52,13.464 Z M19.112,11.776 L18.264,11.776 L18.264,14.08 C17.928,13.592 17.504,13.352 17,13.352 C16.408,13.352 15.936,13.568 15.6,14 C15.28,14.4 15.128,14.904 15.128,15.512 C15.128,16.144 15.288,16.664 15.608,17.064 C15.952,17.496 16.432,17.712 17.04,17.712 C17.6,17.712 18.032,17.504 18.32,17.104 L18.32,17.6 L19.112,17.6 L19.112,11.776 Z M7.992,11.888 L7,11.888 L4.8,17.6 L5.728,17.6 L6.264,16.128 L8.72,16.128 L9.256,17.6 L10.192,17.6 L7.992,11.888 Z M21.096,13.464 L20.248,13.464 L20.248,17.6 L21.096,17.6 L21.096,13.464 Z M23.496,12.128 L22.648,12.48 L22.648,13.464 L21.88,13.464 L21.88,14.168 L22.648,14.168 L22.648,16.568 C22.648,16.896 22.72,17.144 22.88,17.32 C23.04,17.504 23.304,17.6 23.656,17.6 L24.336,17.6 L24.336,16.896 L23.792,16.896 C23.688,16.896 23.616,16.864 23.568,16.816 C23.52,16.76 23.496,16.68 23.496,16.568 L23.496,14.168 L24.44,14.168 L24.44,13.464 L23.496,13.464 L23.496,12.128 Z M17.192,14.04 C17.504,14.04 17.76,14.16 17.968,14.416 C18.176,14.688 18.288,15.048 18.288,15.496 L18.288,15.568 C18.288,15.984 18.2,16.32 18.024,16.584 C17.816,16.872 17.536,17.024 17.168,17.024 C16.752,17.024 16.44,16.872 16.248,16.576 C16.08,16.32 16,15.968 16,15.512 C16,15.056 16.088,14.704 16.264,14.464 C16.464,14.176 16.776,14.04 17.192,14.04 Z M7.512,12.824 L8.456,15.408 L6.528,15.408 L7.48,12.824 L7.512,12.824 Z M20.672,11.808 C20.504,11.808 20.368,11.856 20.256,11.968 C20.144,12.072 20.088,12.208 20.088,12.376 C20.088,12.536 20.144,12.68 20.256,12.792 C20.368,12.896 20.504,12.952 20.672,12.952 C20.832,12.952 20.976,12.896 21.088,12.792 C21.2,12.68 21.264,12.544 21.264,12.376 C21.264,12.208 21.208,12.072 21.096,11.968 C20.984,11.856 20.84,11.808 20.672,11.808 Z" id="形状结合"></path>
            </g>
        </g>
    </g>
</svg>