<?xml version="1.0" encoding="UTF-8"?>
<svg width="63px" height="56px" viewBox="0 0 63 56" version="1.1" xmlns="http://www.w3.org/2000/svg" xmlns:xlink="http://www.w3.org/1999/xlink">
    <title>borrow  icon </title>
    <g id="页面-1" stroke="none" stroke-width="1" fill="none" fill-rule="evenodd">
        <g id="3、dashboard-1-3A--my-asset--borrow-" transform="translate(-664.000000, -662.000000)">
            <g id="borrow--icon-" transform="translate(664.000000, 662.000000)">
                <g id="￥" transform="translate(37.000000, 35.000000)">
                    <circle id="椭圆形" fill="#204E79" cx="10.4" cy="10.4" r="10.4"></circle>
                    <path d="M16.6759022,9.17215304 C16.8792174,8.97973651 16.9958352,8.7160914 17,8.43944477 C16.9958295,8.16252225 16.8793144,7.89856538 16.6760936,7.70565715 C16.4728728,7.51274892 16.199598,7.40669604 15.9164026,7.41083516 L13.1123568,7.41083516 L15.9100658,4.75565914 C16.1134418,4.5656748 16.2284931,4.30261074 16.2284931,4.02757704 C16.2284931,3.75254335 16.1134418,3.48947928 15.9100658,3.29949494 C15.4816824,2.90016835 14.8081056,2.90016835 14.3797222,3.29949494 L10.4097002,7.07312899 L6.43650987,3.29949494 C6.00812643,2.90016835 5.33454966,2.90016835 4.90616622,3.29949494 C4.7027902,3.48947928 4.58773891,3.75254335 4.58773891,4.02757704 C4.58773891,4.30261074 4.7027902,4.5656748 4.90616622,4.75565914 L7.70387521,7.41083516 L5.08359737,7.41083516 C4.80040196,7.40669604 4.52712719,7.51274892 4.32390641,7.70565715 C4.12068562,7.89856538 4.00417055,8.16252225 4,8.43944477 C4,9.00641935 4.48793566,9.46495616 5.08359737,9.46495616 L9.41481843,9.46495616 L9.41481843,11.5190772 L5.08359737,11.5190772 C4.80040196,11.514938 4.52712719,11.6209909 4.32390641,11.8138992 C4.12068562,12.0068074 4.00417055,12.2707642 4,12.5476868 C4,13.1146613 4.48476724,13.5762964 5.08359737,13.5762964 L9.41481843,13.5762964 L9.41481843,15.97432 C9.41481843,16.5412946 9.89958567,16.9998314 10.4984158,16.9998314 C10.7816151,17.0048057 11.0552315,16.8995454 11.2590495,16.7072153 C11.4628676,16.5148853 11.5801843,16.251247 11.5851816,15.97432 L11.5851816,13.5762964 L15.9164026,13.5762964 C16.199598,13.5804355 16.4728728,13.4743826 16.6760936,13.2814744 C16.8793144,13.0885662 16.9958295,12.8246093 17,12.5476868 C16.9966707,12.2704995 16.8804197,12.0060583 16.6770127,11.8129733 C16.4736057,11.6198883 16.1998437,11.5141079 15.9164026,11.5190772 L11.5851816,11.5190772 L11.5851816,9.46495616 L15.9164026,9.46495616 C16.1993018,9.46992679 16.4725871,9.36456956 16.6759022,9.17215304 Z" id="路径" fill="#FFFFFF"></path>
                </g>
                <path d="M61.588,15.352 C62.068,16.324 62.364,17.4 62.36004,18.552 C62.36004,22.68 58.868,26.024 54.564,26.024 C50.256,26.024 46.764,22.68 46.764,18.548 C46.764,22.68 43.276,26.028 38.972,26.028 C34.672,26.028 31.18,22.684 31.176,18.556 C31.176,22.684 27.684,26.024 23.384,26.024 C19.08,26.024 15.588,22.68 15.588,18.548 C15.588,22.68 12.1,26.028 7.796,26.028 C3.488,26.024 -1.59872116e-13,22.68 -1.59872116e-13,18.544 C0.00738830191,17.433383 0.271610243,16.3395315 0.772,15.348 L5.092,4.732 L57.264,4.732 L61.584,15.348 L61.588,15.352 Z" id="路径" fill="#204E79"></path>
                <path d="M4.892,1.58 C4.90273646,0.71342912 5.60145912,0.0129330532 6.468,-2.59792188e-14 L55.96,-2.59792188e-14 C56.828,-2.59792188e-14 57.536,0.732 57.536,1.58 C57.5231193,2.44500924 56.8250092,3.14311932 55.96,3.156 L6.468,3.156 C5.60121523,3.1473315 4.9006685,2.44678477 4.892,1.58 Z" id="路径" fill="#204E79"></path>
                <polyline id="路径-7" stroke="#204E79" stroke-width="2" stroke-linecap="round" stroke-linejoin="round" points="9 32.4904102 9 52.5122177 34.768 52.5122177"></polyline>
            </g>
        </g>
    </g>
</svg>