<?xml version="1.0" encoding="UTF-8"?>
<svg width="217px" height="246px" viewBox="0 0 217 246" version="1.1" xmlns="http://www.w3.org/2000/svg" xmlns:xlink="http://www.w3.org/1999/xlink">
    <title>lose all</title>
    <defs>
        <linearGradient x1="70.711%" y1="70.711%" x2="0%" y2="-1.11022302e-14%" id="linearGradient-1">
            <stop stop-color="#2755C8" offset="0%"></stop>
            <stop stop-color="#577FE5" offset="100%"></stop>
        </linearGradient>
        <linearGradient x1="70.711%" y1="70.711%" x2="0%" y2="2.77555756e-14%" id="linearGradient-2">
            <stop stop-color="#577FE5" offset="0%"></stop>
            <stop stop-color="#AAC0FA" offset="100%"></stop>
        </linearGradient>
        <linearGradient x1="70.711%" y1="70.711%" x2="0%" y2="5.55111512e-15%" id="linearGradient-3">
            <stop stop-color="#577FE5" offset="0%"></stop>
            <stop stop-color="#AAC0FA" offset="100%"></stop>
        </linearGradient>
        <linearGradient x1="74.5718759%" y1="75.7006902%" x2="34.8807256%" y2="29.5464838%" id="linearGradient-4">
            <stop stop-color="#2857CE" offset="0%"></stop>
            <stop stop-color="#86A3F0" offset="100%"></stop>
        </linearGradient>
        <linearGradient x1="72.7491766%" y1="66.6293928%" x2="50%" y2="33.4291823%" id="linearGradient-5">
            <stop stop-color="#577FE5" offset="0%"></stop>
            <stop stop-color="#AAC0FA" offset="100%"></stop>
        </linearGradient>
        <linearGradient x1="38.9797494%" y1="79.3780408%" x2="23.546343%" y2="-45.9893162%" id="linearGradient-6">
            <stop stop-color="#577FE5" offset="0%"></stop>
            <stop stop-color="#AAC0FA" offset="100%"></stop>
        </linearGradient>
        <linearGradient x1="67.3984085%" y1="115.299537%" x2="42.556021%" y2="-10.8328543%" id="linearGradient-7">
            <stop stop-color="#577FE5" offset="0%"></stop>
            <stop stop-color="#AAC0FA" offset="100%"></stop>
        </linearGradient>
    </defs>
    <g id="页面-切图文件" stroke="none" stroke-width="1" fill="none" fill-rule="evenodd">
        <g id="6、dashboard-1-3A--my-wallet-not-connect-7.7" transform="translate(-598.000000, -788.000000)">
            <g id="lose-all" transform="translate(598.645833, 789.687500)">
                <g id="wallet备份" transform="translate(16.770833, 80.937500)">
                    <path d="M18.0964,0 L151.8846,0 C159.0064,0 163.3275,5.6616 161.5992,12.3991 L145.3816,75.6133 C144.2791,79.912 139.0081,83.3 133.5782,83.3 L31.5742,83.3 C26.1443,83.3 21.0693,79.912 20.216,75.6133 L7.6629,12.3991 C6.3252,5.6616 10.9739,0 18.0964,0 Z" id="路径" fill="#000000"></path>
                    <path d="M18.0964,0 L151.8846,0 C159.0064,0 163.3275,5.6616 161.5992,12.3991 L145.3816,75.6133 C144.2791,79.912 139.0081,83.3 133.5782,83.3 L31.5742,83.3 C26.1443,83.3 21.0693,79.912 20.216,75.6133 L7.6629,12.3991 C6.3252,5.6616 10.9739,0 18.0964,0 Z" id="路径" fill="url(#linearGradient-1)" fill-rule="nonzero"></path>
                    <path d="M12.5958,26.6 L158.1391,26.6 C165.8867,26.6 170.8504,32.7985 169.2719,40.2234 L153.8789,112.6405 C152.7925,117.7533 146.9181,121.8 140.7322,121.8 L24.5322,121.8 C18.347,121.8 12.705,117.7533 11.9119,112.6405 L0.6804,40.2234 C-0.4711,32.7985 4.8482,26.6 12.5958,26.6 Z" id="路径" fill="#4F4F4F"></path>
                    <path d="M12.5958,26.6 L158.1391,26.6 C165.8867,26.6 170.8504,32.7985 169.2719,40.2234 L153.8789,112.6405 C152.7925,117.7533 146.9181,121.8 140.7322,121.8 L24.5322,121.8 C18.347,121.8 12.705,117.7533 11.9119,112.6405 L0.6804,40.2234 C-0.4711,32.7985 4.8482,26.6 12.5958,26.6 Z" id="路径" fill="url(#linearGradient-2)" fill-rule="nonzero"></path>
                    <path d="M122.381,69.6311 L163.0209,69.6311 L158.3477,91.6195 L119.7896,91.6195 C113.1088,91.6195 108.1094,86.8952 108.6365,80.9144 C109.179,74.7572 115.3397,69.6311 122.381,69.6311 Z" id="路径" fill="#FFFFFF"></path>
                    <path d="M122.381,69.6311 L163.0209,69.6311 L158.3477,91.6195 L119.7896,91.6195 C113.1088,91.6195 108.1094,86.8952 108.6365,80.9144 C109.179,74.7572 115.3397,69.6311 122.381,69.6311 Z" id="路径" fill="url(#linearGradient-3)" fill-rule="nonzero"></path>
                    <path d="M122.4937,75.3473 C125.9671,75.3473 128.4458,77.8582 128.0342,80.9144 C127.6289,83.9258 124.5615,86.3359 121.1777,86.3359 C117.7939,86.3359 115.304,83.9258 115.6197,80.9144 C115.9403,77.8582 119.0196,75.3473 122.4937,75.3473 Z" id="路径" fill="#FDE0E0"></path>
                    <path d="M122.4937,75.3473 C125.9671,75.3473 128.4458,77.8582 128.0342,80.9144 C127.6289,83.9258 124.5615,86.3359 121.1777,86.3359 C117.7939,86.3359 115.304,83.9258 115.6197,80.9144 C115.9403,77.8582 119.0196,75.3473 122.4937,75.3473 Z" id="路径" fill="url(#linearGradient-4)" fill-rule="nonzero"></path>
                </g>
                <g id="编组-5备份" transform="translate(129.062500, 0.000000)">
                    <polygon id="路径" stroke="#204E79" stroke-width="0.729166667" fill="url(#linearGradient-5)" stroke-linejoin="round" points="13.1254365 30.6248461 85.3150938 0 38.6441129 35.0051171"></polygon>
                    <polygon id="路径" stroke="#2D6392" stroke-width="0.729166667" fill="#446FDC" stroke-linejoin="round" points="38.6441129 35.0051171 85.3150938 0 45.9351071 35.0051171 47.5475 54.8625"></polygon>
                    <polygon id="路径" stroke="#2D6392" stroke-width="0.729166667" fill="url(#linearGradient-6)" stroke-linejoin="round" points="84.5882532 0.730323136 47.5475 54.8625 45.2139076 35.0051171"></polygon>
                    <polygon id="路径" stroke="#2D6392" stroke-width="0.729166667" fill="url(#linearGradient-7)" stroke-linejoin="round" points="45.2139076 35.0051171 80.2126569 43.752512 85.3150938 3.94588066e-14"></polygon>
                    <path d="M42.5454167,58.23125 C42.5454167,58.23125 43.1316667,74.4464583 27.2555208,80.8572917 C27.2555208,80.8572917 10.9557292,86.1685417 11.3013542,74.2021875 C11.5594792,65.2523958 31.6144792,61.009375 26.5905208,82.1880208 C26.5905208,82.1880208 24.2469792,87.2739583 0,98.8246875" id="路径" stroke="#B8C0C8" stroke-width="1.45833333" stroke-dasharray="5.833333333333333,2.916666666666667"></path>
                </g>
                <g id="line备份" transform="translate(0.000000, 223.312500)" fill="#CED6DC" fill-rule="nonzero">
                    <g id="编组">
                        <path d="M1.73296667,3.5896 C0.797029141,3.5608563 0.0531962901,2.7938288 0.0531962901,1.85745 C0.0531962901,0.921071203 0.797029141,0.154043702 1.73296667,0.1253 L153.3063,0.1253 C154.242238,0.154043702 154.98607,0.921071203 154.98607,1.85745 C154.98607,2.7938288 154.242238,3.5608563 153.3063,3.5896 L1.73296667,3.5896 Z M161.971133,3.5896 C161.339612,3.60899473 160.747582,3.28315629 160.42609,2.73924655 C160.104597,2.19533681 160.104597,1.51956319 160.42609,0.975653449 C160.747582,0.431743709 161.339612,0.105905267 161.971133,0.1253 L167.384,0.1253 C168.319938,0.154043702 169.06377,0.921071203 169.06377,1.85745 C169.06377,2.7938288 168.319938,3.5608563 167.384,3.5896 L161.971133,3.5896 Z M181.460067,3.5896 C180.828545,3.60899473 180.236516,3.28315629 179.915023,2.73924655 C179.593531,2.19533681 179.593531,1.51956319 179.915023,0.975653449 C180.236516,0.431743709 180.828545,0.105905267 181.460067,0.1253 L200.949,0.1253 C201.884938,0.154043702 202.62877,0.921071203 202.62877,1.85745 C202.62877,2.7938288 201.884938,3.5608563 200.949,3.5896 L181.460067,3.5896 Z M51.5365667,19.8298333 C50.9050454,19.8492281 50.3130156,19.5233896 49.9915231,18.9794799 C49.6700306,18.4355701 49.6700306,17.7597965 49.9915231,17.2158868 C50.3130156,16.671977 50.9050454,16.3461386 51.5365667,16.3655333 L66.6939,16.3655333 C67.3254212,16.3461386 67.9174511,16.671977 68.2389436,17.2158868 C68.5604361,17.7597965 68.5604361,18.4355701 68.2389436,18.9794799 C67.9174511,19.5233896 67.3254212,19.8492281 66.6939,19.8298333 L51.5365667,19.8298333 Z M76.4383667,19.8298333 C75.8068454,19.8492281 75.2148156,19.5233896 74.8933231,18.9794799 C74.5718306,18.4355701 74.5718306,17.7597965 74.8933231,17.2158868 C75.2148156,16.671977 75.8068454,16.3461386 76.4383667,16.3655333 L142.4822,16.3655333 C143.418138,16.394277 144.16197,17.1613045 144.16197,18.0976833 C144.16197,19.0340621 143.418138,19.8010896 142.4822,19.8298333 L76.4383667,19.8298333 Z" id="Path-2"></path>
                    </g>
                </g>
            </g>
        </g>
    </g>
</svg>