<?xml version="1.0" encoding="UTF-8"?>
<svg width="265px" height="239px" viewBox="0 0 265 239" version="1.1" xmlns="http://www.w3.org/2000/svg" xmlns:xlink="http://www.w3.org/1999/xlink">
    <title>data all</title>
    <defs>
        <linearGradient x1="0%" y1="100%" x2="0%" y2="0%" id="linearGradient-1">
            <stop stop-color="#6689DA" offset="0%"></stop>
            <stop stop-color="#E0EBFD" offset="100%"></stop>
        </linearGradient>
        <linearGradient x1="0%" y1="107.347016%" x2="0%" y2="15.2984059%" id="linearGradient-2">
            <stop stop-color="#7F99D6" offset="0%"></stop>
            <stop stop-color="#E0EBFD" offset="100%"></stop>
        </linearGradient>
        <linearGradient x1="100%" y1="124.439965%" x2="4.5839344%" y2="23.8927665%" id="linearGradient-3">
            <stop stop-color="#2755C8" offset="0%"></stop>
            <stop stop-color="#577FE5" offset="100%"></stop>
        </linearGradient>
        <linearGradient x1="71.1418488%" y1="75.4015339%" x2="0%" y2="-12.6350471%" id="linearGradient-4">
            <stop stop-color="#577FE5" offset="0%"></stop>
            <stop stop-color="#AAC0FA" offset="100%"></stop>
        </linearGradient>
        <linearGradient x1="0%" y1="100%" x2="0%" y2="10.0757041%" id="linearGradient-5">
            <stop stop-color="#84A3F0" offset="0%"></stop>
            <stop stop-color="#C0D2FF" offset="100%"></stop>
        </linearGradient>
        <linearGradient x1="50%" y1="47.5638715%" x2="34.7851748%" y2="-26.8103526%" id="linearGradient-6">
            <stop stop-color="#577FE5" offset="0%"></stop>
            <stop stop-color="#AAC0FA" offset="100%"></stop>
        </linearGradient>
    </defs>
    <g id="页面-切图文件" stroke="none" stroke-width="1" fill="none" fill-rule="evenodd">
        <g id="5、dashboard-1-3A--my-asset-empty-7.7" transform="translate(-568.000000, -795.000000)">
            <g id="data-all" transform="translate(568.750000, 795.520833)">
                <g id="line备份" transform="translate(31.000000, 218.000000)" fill="#CED6DC" fill-rule="nonzero">
                    <g id="编组">
                        <path d="M1.73296667,3.5896 C0.797029141,3.5608563 0.0531962901,2.7938288 0.0531962901,1.85745 C0.0531962901,0.921071203 0.797029141,0.154043702 1.73296667,0.1253 L153.3063,0.1253 C154.242238,0.154043702 154.98607,0.921071203 154.98607,1.85745 C154.98607,2.7938288 154.242238,3.5608563 153.3063,3.5896 L1.73296667,3.5896 Z M161.971133,3.5896 C161.339612,3.60899473 160.747582,3.28315629 160.42609,2.73924655 C160.104597,2.19533681 160.104597,1.51956319 160.42609,0.975653449 C160.747582,0.431743709 161.339612,0.105905267 161.971133,0.1253 L167.384,0.1253 C168.319938,0.154043702 169.06377,0.921071203 169.06377,1.85745 C169.06377,2.7938288 168.319938,3.5608563 167.384,3.5896 L161.971133,3.5896 Z M181.460067,3.5896 C180.828545,3.60899473 180.236516,3.28315629 179.915023,2.73924655 C179.593531,2.19533681 179.593531,1.51956319 179.915023,0.975653449 C180.236516,0.431743709 180.828545,0.105905267 181.460067,0.1253 L200.949,0.1253 C201.884938,0.154043702 202.62877,0.921071203 202.62877,1.85745 C202.62877,2.7938288 201.884938,3.5608563 200.949,3.5896 L181.460067,3.5896 Z M51.5365667,19.8298333 C50.9050454,19.8492281 50.3130156,19.5233896 49.9915231,18.9794799 C49.6700306,18.4355701 49.6700306,17.7597965 49.9915231,17.2158868 C50.3130156,16.671977 50.9050454,16.3461386 51.5365667,16.3655333 L66.6939,16.3655333 C67.3254212,16.3461386 67.9174511,16.671977 68.2389436,17.2158868 C68.5604361,17.7597965 68.5604361,18.4355701 68.2389436,18.9794799 C67.9174511,19.5233896 67.3254212,19.8492281 66.6939,19.8298333 L51.5365667,19.8298333 Z M76.4383667,19.8298333 C75.8068454,19.8492281 75.2148156,19.5233896 74.8933231,18.9794799 C74.5718306,18.4355701 74.5718306,17.7597965 74.8933231,17.2158868 C75.2148156,16.671977 75.8068454,16.3461386 76.4383667,16.3655333 L142.4822,16.3655333 C143.418138,16.394277 144.16197,17.1613045 144.16197,18.0976833 C144.16197,19.0340621 143.418138,19.8010896 142.4822,19.8298333 L76.4383667,19.8298333 Z" id="Path-2"></path>
                    </g>
                </g>
                <g id="data-">
                    <path d="M53.3808333,80.7916667 C53.3808333,80.7916667 44.6053125,76.4458333 38.5357292,84.6248958 C32.4661458,92.8046875 20.9817708,127.853542 27.2701042,141.893646 C33.5591667,155.933021 35.1873958,161.228958 49.835625,165.333437 C64.483125,169.437187 70.4965625,129.650208 67.1358333,119.203437 C66.4978125,89.0669792 53.3808333,80.7916667 53.3808333,80.7916667 Z" id="路径" fill="#A0B9F7"></path>
                    <path d="M110.760417,31.4475 C110.760417,31.4475 122.845625,12.0144792 132.688646,14.9530208 C142.531667,17.8915625 138.694063,32.773125 143.720938,47.5934375 C148.748542,62.41375 136.774896,67.5682292 143.479583,74.99625 C150.184271,82.425 134.106146,118.74625 118.364167,130.199271 C102.621458,141.652292 91.7546875,74.4807292 110.760417,31.4475 Z" id="路径" fill="#A0B9F7"></path>
                    <path d="M153.02,92.9060417 L210.861146,44.2925 C214.597396,41.1527083 220.376042,41.8782292 223.767396,45.9141667 L252.324479,79.891875 C255.716562,83.9270833 255.437292,89.744375 251.701042,92.8841667 L193.859896,141.497708 C190.123646,144.638229 184.345729,143.911979 180.953646,139.876771 L152.396562,105.899062 C149.004479,101.863125 149.28375,96.0465625 153.02,92.9060417 Z" id="路径" fill="#3399F1"></path>
                    <path d="M153.02,92.9060417 L210.861146,44.2925 C214.597396,41.1527083 220.376042,41.8782292 223.767396,45.9141667 L252.324479,79.891875 C255.716562,83.9270833 255.437292,89.744375 251.701042,92.8841667 L193.859896,141.497708 C190.123646,144.638229 184.345729,143.911979 180.953646,139.876771 L152.396562,105.899062 C149.004479,101.863125 149.28375,96.0465625 153.02,92.9060417 Z" id="路径" fill="url(#linearGradient-1)" fill-rule="nonzero"></path>
                    <path d="M116.889792,79.6709375 L161.077292,5.40677083 C163.931979,0.6103125 170.446354,-0.779479167 175.627812,2.3034375 L219.253125,28.2610417 C224.433854,31.3439583 226.320937,37.7321875 223.46625,42.529375 L179.278021,116.793542 C176.424062,121.590729 169.909687,122.979792 164.728229,119.896875 L121.102917,93.9392708 C115.921458,90.8563542 114.035104,84.468125 116.889792,79.6709375 Z" id="路径" fill="url(#linearGradient-2)"></path>
                    <path d="M195.524583,57.1221875 L158.364063,35.3179167 L161.81375,29.439375 L198.974271,51.244375 L195.524583,57.1221875 Z M187.333854,71.4430208 L150.173333,49.6380208 L153.595313,43.806875 L190.755833,65.6111458 L187.333854,71.4430208 Z M177.708854,87.4846875 L140.548333,65.6796875 L143.970313,59.8485417 L181.130833,81.6528125 L177.708854,87.4846875 Z M140.191042,86.3763542 L131.840625,81.4763542 L134.882708,76.2927083 L143.233125,81.1927083 L140.191042,86.3763542 Z M153.671146,87.3177083 L150.629792,92.5013542 L142.696458,87.8463542 L145.738542,82.6627083 L153.671146,87.3177083 Z M171.207604,97.6077083 L168.16625,102.791354 L153.552292,94.2163542 L156.594375,89.0327083 L171.207604,97.6077083 Z" id="形状" fill="#3198F1" opacity="0.212"></path>
                    <path d="M81.9641667,20.7666667 C98.5760417,20.7666667 112.042292,34.2329167 112.042292,50.8447917 C112.042292,67.4559375 98.5760417,80.9229167 81.9641667,80.9229167 C65.3522917,80.9229167 51.8860417,67.4559375 51.8860417,50.8447917 C51.8860417,34.2329167 65.3522917,20.7666667 81.9641667,20.7666667 Z" id="路径" fill="#204E79"></path>
                    <path d="M80.390625,20.4166667 C97.0025,20.4166667 110.46875,33.8829167 110.46875,50.4947917 C110.46875,67.1059375 97.0025,80.5729167 80.390625,80.5729167 C63.77875,80.5729167 50.3125,67.1059375 50.3125,50.4947917 C50.3125,33.8829167 63.77875,20.4166667 80.390625,20.4166667 Z" id="路径" fill="url(#linearGradient-3)" fill-rule="nonzero"></path>
                    <text id="?" fill-rule="nonzero" transform="translate(80.635316, 50.108080) rotate(-30.000000) translate(-80.635316, -50.108080) " font-family="Helvetica" font-size="35" font-weight="normal" fill="#FFFFFF">
                        <tspan x="70.6353165" y="63.1080796">?</tspan>
                    </text>
                    <path d="M71.281875,71.2979167 L211.354792,71.2979167 C219.408438,71.2979167 225.938125,77.826875 225.938125,85.88125 L225.938125,164.120833 C225.938125,172.174479 219.408438,178.704167 211.354792,178.704167 L71.281875,178.704167 C63.2275,178.704167 56.6985417,172.174479 56.6985417,164.120833 L56.6985417,85.88125 C56.6985417,77.826875 63.2275,71.2979167 71.281875,71.2979167 Z" id="路径" fill="#2D6392"></path>
                    <path d="M70,71.4583333 L210.072917,71.4583333 C218.126562,71.4583333 224.65625,77.9872917 224.65625,86.0416667 L224.65625,163.552083 C224.65625,171.605729 218.126562,178.135417 210.072917,178.135417 L70,178.135417 C61.945625,178.135417 55.4166667,171.605729 55.4166667,163.552083 L55.4166667,86.0416667 C55.4166667,77.9872917 61.945625,71.4583333 70,71.4583333 Z" id="路径" fill="url(#linearGradient-4)" fill-rule="nonzero"></path>
                    <text id="DATA" fill="#FFFFFF" fill-rule="nonzero" font-family="PingFangSC-Regular, PingFang SC" font-size="35" font-weight="normal">
                        <tspan x="94.0625" y="139.8125">DATA</tspan>
                    </text>
                    <path d="M215.669271,114.671667 C217.324479,112.278542 221.289688,116.259792 224.766354,116.189792 C228.24375,116.120521 225.015,122.490521 228.442813,124.434479 C230.044792,125.343021 231.285104,127.224271 230.079792,129.437292 C229.333646,130.807257 229.965096,133.690622 230.769155,136.538339 L230.957222,137.194167 C231.400637,138.719664 231.867222,140.200278 232.168854,141.394167 C233.074479,144.975104 232.390521,146.496875 227.791667,154.099167 C227.43818,154.68351 227.077593,155.185976 226.712784,155.615372 C228.066314,158.920099 225.860357,165.325008 221.215313,165.149688 C221.215313,165.149688 214.146771,164.512396 214.364063,157.156563 C214.582083,149.800729 207.275104,154.331042 204.658125,148.021563 C202.042604,141.712813 196.064896,137.604688 197.807604,135.461667 C199.549583,133.318646 204.562604,126.316458 208.08375,129.181354 C211.606354,132.04625 210.5775,134.194375 213.222188,137.174479 C214.023985,138.077745 215.067257,138.737726 216.165843,139.333432 C216.089602,138.774683 215.982478,138.161821 215.838438,137.486562 C214.9274,133.213564 215.047126,133.967071 215.439717,134.64266 L215.496192,134.735909 C215.747929,135.133344 216.086539,135.415493 216.344479,134.453958 C217.049583,131.828229 213.968854,130.457396 211.205313,125.319687 C209.06062,121.3341 211.93422,118.563912 214.103519,116.404647 L214.388082,116.120312 C214.900289,115.605474 215.355214,115.125535 215.669271,114.671667 Z M234.549583,110.326562 C235.425313,106.237396 242.979479,105.505312 242.542708,108.042812 C242.105938,110.581042 243.492083,110.500104 245.968333,113.752187 C248.443854,117.005 248.496354,122.698333 247.681146,124.029062 C246.865208,125.359792 242.097188,132.832292 243.113646,136.01875 C243.264232,136.49071 243.427446,136.937816 243.598897,137.384591 L243.728962,137.719993 C243.789316,137.874288 243.850517,138.029269 243.912385,138.18594 C244.513455,136.965063 245.390308,135.825968 246.539271,134.876875 C249.456667,132.46625 247.538229,129.270312 249.393958,125.170937 C251.249688,121.071562 259.565833,115.698333 262.524792,118.319687 C265.48375,120.941771 259.748854,129.670625 257.387083,130.880312 C255.024583,132.089271 254.166354,135.443437 254.532396,142.298333 C254.857856,148.406072 251.431258,152.241046 250.679763,153.00508 L250.60155,153.083233 C250.558904,153.12503 250.535833,153.146146 250.535833,153.146146 C248.82563,152.605522 247.54756,151.946352 246.581516,151.212966 C246.296114,157.994238 238.986372,158.273718 238.565089,158.284198 L238.546146,158.284583 C231.444063,157.648021 232.074063,151.486562 233.978646,146.865833 C235.883958,142.245104 233.945104,138.360833 232.265833,133.164062 C230.586563,127.966562 234.513125,124.806354 234.549583,120.0325 C234.586771,115.258646 233.673854,114.416458 234.549583,110.326562 Z" id="形状结合" fill="#87B8F2"></path>
                    <path d="M202.006875,149.149583 L261.953854,149.149583 C261.953854,149.149583 270.351667,166.288646 249.964896,192.540104 L212.28375,192.540104 C212.28375,192.540104 193.542708,163.504687 202.006875,149.149583 Z" id="路径" fill="#5AC88E"></path>
                    <path d="M202.006875,149.149583 L261.953854,149.149583 C261.953854,149.149583 270.351667,166.288646 249.964896,192.540104 L212.28375,192.540104 C212.28375,192.540104 193.542708,163.504687 202.006875,149.149583 Z" id="路径" fill="url(#linearGradient-5)" fill-rule="nonzero"></path>
                    <g id="leaves" transform="translate(37.965629, 136.897177) rotate(-6.000000) translate(-37.965629, -136.897177) translate(5.965629, 79.397177)">
                        <path d="M2.40586622,0.536194125 C-4.60638378,2.66477746 6.11936622,13.6442775 4.34486622,28.1774441 C2.60478288,42.4276941 10.8729495,49.3670275 8.78694955,55.1256941 C6.69803288,60.8925275 20.5702829,73.1991108 12.9560329,90.1128608 C12.9560329,90.1128608 11.9731162,100.712027 19.0996995,106.624694 C28.6576162,115.454611 42.4131995,115.829694 50.0723662,112.082944 C50.0723662,112.082944 66.0936162,101.507111 62.5591995,75.9594441 C62.5591995,75.9594441 55.8211162,52.3385275 43.4941162,43.0372775 C43.4941162,43.0372775 36.8470329,13.7387775 28.0445329,7.46969412 C23.1176995,3.96094412 10.0457829,-1.78313921 2.40586622,0.536194125 Z" id="路径" fill="url(#linearGradient-6)"></path>
                        <g id="line-" transform="translate(16.281616, 34.629694)" opacity="0.694" stroke="#FFFFFF" stroke-width="1.16666667">
                            <path d="M25.802,46.2635833 C25.802,46.2635833 31.0205,39.9373333 37.2586667,40.6116667" id="路径"></path>
                            <path d="M2.27966667,37.4330833 C2.27966667,37.4330833 11.7069167,43.3609167 20.64125,39.39075" id="路径"></path>
                            <path d="M28.2391667,25.1498333 C28.2391667,25.1498333 19.6105,26.7545833 17.6195833,32.6159167" id="路径"></path>
                            <path d="M-9.51239087e-13,19.6921667 C-9.51239087e-13,19.6921667 8.50033333,26.922 13.1885833,26.6151667" id="路径"></path>
                            <path d="M14.33775,3.15641667 C14.33775,3.15641667 10.57875,6.10808333 10.62775,10.36" id="路径"></path>
                            <path d="M10.5898333,13.0065833 C10.5898333,13.0065833 13.2410833,8.90341667 16.0994167,9.114" id="路径"></path>
                            <path d="M10.4171667,1.16055314e-13 C10.4171667,1.16055314e-13 9.21608333,19.0265833 13.7275833,27.4913333 C18.2390833,35.9560833 31.90425,50.302 28.4118333,75.1053333" id="路径"></path>
                            <path d="M6.146,62.4674167 C6.146,62.4674167 18.3009167,70.22575 28.3890833,67.3796667" id="路径"></path>
                            <path d="M29.0984167,72.1904167 C29.0984167,72.1904167 32.3563333,65.5246667 36.9425,64.7628333" id="路径"></path>
                            <path d="M39.1165833,55.7789167 C39.1165833,55.7789167 31.6184167,56.53025 29.092,61.53175" id="路径"></path>
                            <path d="M11.4059167,53.0845 C11.4059167,53.0845 22.41575,55.8565 26.55625,51.9674167" id="路径"></path>
                            <path d="M21.1738333,57.6613333 C21.1738333,57.6613333 26.0376667,58.086 27.9095833,56.133" id="路径"></path>
                        </g>
                    </g>
                </g>
            </g>
        </g>
    </g>
</svg>