<?xml version="1.0" encoding="UTF-8"?>
<svg width="56px" height="53px" viewBox="0 0 56 53" version="1.1" xmlns="http://www.w3.org/2000/svg" xmlns:xlink="http://www.w3.org/1999/xlink">
    <title>zichanxinxishenhe备份</title>
    <g id="页面-1" stroke="none" stroke-width="1" fill="none" fill-rule="evenodd">
        <g id="7、dashboard-1-3A---supply-credit-open-button直角" transform="translate(-979.000000, -675.000000)">
            <g id="zichanxinxishenhe备份" transform="translate(979.000000, 676.000000)">
                <path d="M52.5312,14.4 C54.0581569,14.4 55.296,15.6378431 55.296,17.1648 L55.296,49.0788864 C55.296,50.6058433 54.0581569,51.8436864 52.5312,51.8436864 L2.7648,51.8436864 C1.23784312,51.8436864 0,50.6058433 0,49.0788864 L0,17.1648 C0,15.6378431 1.23784312,14.4 2.7648,14.4 L52.5312,14.4 Z" id="路径" fill="#204E79" fill-rule="nonzero"></path>
                <path d="M2.7,12.5940579 L2.7,10.8 C2.7,8.8117749 4.3117749,7.2 6.3,7.2 L48.1891229,7.2 C50.177348,7.2 51.7891229,8.8117749 51.7891229,10.8 C51.7891229,10.8043966 51.7891148,10.8087932 51.7890987,10.8131897 L51.7825739,12.5940579 L51.7825739,12.5940579" id="路径-17" stroke="#204E79" stroke-width="2" stroke-linecap="round" stroke-linejoin="round"></path>
                <path d="M8.1,4.5 L8.1,2.88 C8.1,1.28941992 9.38941992,2.9218482e-16 10.98,0 L44.8097814,0 C46.4003614,1.51904389e-16 47.6897814,1.28941992 47.6897814,2.88 C47.6897814,2.88340018 47.6897753,2.88680036 47.6897633,2.89020051 L47.6840616,4.5 L47.6840616,4.5" id="路径-17" stroke="#204E79" stroke-width="2" stroke-linecap="round" stroke-linejoin="round"></path>
                <path d="M35.5961243,32.2356253 C35.8494863,31.9882327 35.99481,31.6492604 36,31.2935718 C35.9948029,30.9375286 35.8496071,30.5981555 35.5963628,30.3501306 C35.3431184,30.1021058 35.002576,29.9657521 34.649671,29.9710738 L31.1553985,29.9710738 L34.6417743,26.557276 C34.8952121,26.3130105 35.0385837,25.9747852 35.0385837,25.6211705 C35.0385837,25.2675557 34.8952121,24.9293305 34.6417743,24.6850649 C34.1079426,24.171645 33.2685624,24.171645 32.7347307,24.6850649 L27.7874726,29.5368801 L22.8362661,24.6850649 C22.3024345,24.171645 21.4630542,24.171645 20.9292225,24.6850649 C20.6757847,24.9293305 20.5324131,25.2675557 20.5324131,25.6211705 C20.5324131,25.9747852 20.6757847,26.3130105 20.9292225,26.557276 L24.4155983,29.9710738 L21.150329,29.9710738 C20.797424,29.9657521 20.4568816,30.1021058 20.2036372,30.3501306 C19.9503929,30.5981555 19.8051971,30.9375286 19.8,31.2935718 C19.8,32.0225392 20.4080429,32.6120865 21.150329,32.6120865 L26.5476968,32.6120865 L26.5476968,35.2530992 L21.150329,35.2530992 C20.797424,35.2477775 20.4568816,35.3841312 20.2036372,35.6321561 C19.9503929,35.8801809 19.8051971,36.219554 19.8,36.5755973 C19.8,37.3045646 20.4040946,37.8980953 21.150329,37.8980953 L26.5476968,37.8980953 L26.5476968,40.9812686 C26.5476968,41.7102359 27.1517914,42.2997832 27.8980258,42.2997832 C28.2509357,42.3061788 28.5919039,42.1708441 28.8458925,41.9235626 C29.0998811,41.6762811 29.2460758,41.3373175 29.2523032,40.9812686 L29.2523032,37.8980953 L34.649671,37.8980953 C35.002576,37.9034171 35.3431184,37.7670634 35.5963628,37.5190385 C35.8496071,37.2710136 35.9948029,36.9316405 36,36.5755973 C35.9958512,36.2192137 35.8509846,35.8792178 35.5975082,35.6309657 C35.3440317,35.3827135 35.0028821,35.2467102 34.649671,35.2530992 L29.2523032,35.2530992 L29.2523032,32.6120865 L34.649671,32.6120865 C35.0022069,32.6184773 35.3427623,32.483018 35.5961243,32.2356253 Z" id="路径" fill="#FFFFFF"></path>
            </g>
        </g>
    </g>
</svg>