<?xml version="1.0" encoding="UTF-8"?>
<svg width="25px" height="31px" viewBox="0 0 25 31" version="1.1" xmlns="http://www.w3.org/2000/svg" xmlns:xlink="http://www.w3.org/1999/xlink">
    <title>safe</title>
    <g id="页面-1" stroke="none" stroke-width="1" fill="none" fill-rule="evenodd">
        <g id="2、dashboard-1-3A-切图文件-1" transform="translate(-260.000000, -1678.000000)" fill-rule="nonzero">
            <g id="last--all-" transform="translate(0.000000, 1647.000000)">
                <g id="last-" transform="translate(260.000000, 30.000000)">
                    <g id="safe" transform="translate(0.000000, 1.000000)">
                        <path d="M12.28125,30.7083333 C11.9570526,30.7078516 11.638256,30.6252856 11.3545833,30.4683333 L7.74125,28.4683333 C2.97037929,25.8167066 0.0125252006,20.7865682 0.0145822704,15.3283333 L0.0145822704,4.96833334 C0.0136236995,4.0485658 0.665076442,3.25731631 1.56791666,3.08166666 L12.0145823,0.0416666562 C12.1913599,0.01498322 12.3711401,0.01498322 12.5479167,0.0416666562 L12.7079167,0.075 L22.9945833,3.08166666 C23.8974236,3.25731631 24.5488763,4.0485658 24.5479177,4.96833334 L24.5479177,15.3283333 C24.5499748,20.7865682 21.5921207,25.8167066 16.82125,28.4683333 L13.2079167,30.4683333 C12.924244,30.6252856 12.6054474,30.7078516 12.28125,30.7083333 Z" id="路径" fill="#FFFFFF"></path>
                        <path d="M11.1145833,19.2816979 C10.8312336,19.2837764 10.5574929,19.1790409 10.3479167,18.9883333 L5.98791666,15.095 C5.51295177,14.6715817 5.47116502,13.9432982 5.89458333,13.4683333 C6.31800164,12.9933684 7.04628512,12.9515817 7.52125,13.375 L11.1145833,16.5816667 L18.1145833,10.3283333 C18.5877073,9.90491505 19.3144983,9.94520943 19.7379166,10.4183334 C20.1613349,10.8914573 20.1210406,11.6182484 19.6479167,12.0416667 L11.88125,18.9883333 C11.6716738,19.1790409 11.3979331,19.2837764 11.1145833,19.2816979 L11.1145833,19.2816979 Z" id="路径" fill="#20329F"></path>
                    </g>
                </g>
            </g>
        </g>
    </g>
</svg>