<svg width="17" height="17" viewBox="0 0 17 17" fill="none" xmlns="http://www.w3.org/2000/svg">
<path d="M17 7.99158C17 8.32522 17 8.65887 17 8.99251C16.9841 9.04017 16.9682 9.08784 16.9682 9.1355C16.8888 10.3271 16.571 11.4551 15.9991 12.4878C14.4262 15.2682 12.043 16.7934 8.84954 16.9841C7.32431 17.0794 5.86263 16.7458 4.52805 15.999C1.7318 14.442 0.206564 12.043 0.0159097 8.84952C-0.0794173 7.32429 0.254228 5.84672 1.00096 4.51214C2.31965 2.11308 4.3374 0.651402 7.02244 0.127103C7.3402 0.0635518 7.67384 0.0317757 8.00749 0C8.34113 0 8.67478 0 9.00842 0C9.05608 0.0158878 9.10375 0.0317764 9.15141 0.0317764C10.0252 0.0953277 10.8673 0.270093 11.6617 0.619626C14.5215 1.84299 16.285 3.98785 16.8888 7.0542C16.9364 7.35607 16.9682 7.67382 17 7.99158ZM8.21403 4.54392C8.1187 4.54392 8.03926 4.54392 7.95982 4.54392C6.75235 4.57569 5.57665 4.73457 4.38506 4.957C4.22618 4.98878 4.16263 5.05233 4.13086 5.19532C4.00376 5.92616 3.86076 6.657 3.73366 7.38784C3.686 7.65793 3.70189 7.92803 3.686 8.18223C5.21123 8.18223 6.70469 8.18223 8.19814 8.18223C8.21403 6.97476 8.21403 5.76728 8.21403 4.54392ZM8.80188 8.18223C10.3112 8.18223 11.8047 8.18223 13.314 8.18223C13.314 8.15046 13.3299 8.15046 13.3299 8.13457C13.2981 7.10186 13.1551 6.08504 12.8692 5.08411C12.8533 5.03644 12.7738 4.97289 12.7262 4.97289C11.7729 4.84579 10.8196 4.7028 9.86637 4.59158C9.51683 4.54392 9.1673 4.55981 8.81777 4.54392C8.80188 5.76728 8.80188 6.97476 8.80188 8.18223ZM3.70189 8.77008C3.70189 8.80186 3.686 8.81775 3.686 8.84952C3.71777 9.88223 3.86076 10.8991 4.14675 11.8841C4.16263 11.9318 4.24207 11.9953 4.28974 11.9953C5.24301 12.1224 6.18039 12.2654 7.13366 12.3766C7.48319 12.4243 7.83272 12.4084 8.18225 12.4243C8.18225 11.185 8.18225 9.97756 8.18225 8.77008C6.70469 8.77008 5.21123 8.77008 3.70189 8.77008ZM8.80188 8.77008C8.80188 9.99345 8.80188 11.2009 8.80188 12.4243C8.84954 12.4243 8.88132 12.4243 8.9131 12.4243C10.2 12.4084 11.471 12.2336 12.7262 11.9953C12.7738 11.9794 12.8374 11.9 12.8533 11.8523C12.9963 11.185 13.1234 10.5177 13.2346 9.83457C13.2981 9.48503 13.2822 9.1355 13.314 8.77008C11.8047 8.77008 10.3112 8.77008 8.80188 8.77008ZM4.41684 12.599C4.40095 12.6149 4.38506 12.6308 4.36918 12.6308C4.60749 13.0916 4.81403 13.5682 5.06824 14.0131C5.54488 14.8233 6.14861 15.5224 6.97478 15.999C7.35609 16.2056 7.75328 16.3486 8.19814 16.3804C8.19814 15.2523 8.19814 14.1243 8.19814 12.9962C6.92712 12.9804 5.67198 12.8374 4.41684 12.599ZM4.38506 4.36915C5.67198 4.13084 6.92711 3.97196 8.21403 3.95607C8.21403 2.81215 8.21403 1.7 8.21403 0.556074C8.13459 0.571962 8.07104 0.571963 8.00749 0.58785C7.43553 0.683177 6.92711 0.937382 6.46637 1.28691C5.44955 2.09719 4.8617 3.17757 4.38506 4.36915ZM12.615 4.36915C12.3608 3.49532 11.614 2.27196 10.9308 1.63645C10.486 1.22336 10.0094 0.889719 9.4215 0.699065C9.21496 0.635513 9.00842 0.603738 8.80188 0.556074C8.80188 1.71589 8.80188 2.82803 8.80188 3.97196C10.0888 3.98785 11.3439 4.13084 12.615 4.36915ZM8.80188 12.9962C8.80188 14.1402 8.80188 15.2523 8.80188 16.3804C8.88132 16.3645 8.94487 16.3645 9.00842 16.3645C9.48506 16.285 9.91403 16.1103 10.2953 15.8402C11.4551 15.0458 12.1065 13.886 12.615 12.599C11.3439 12.8374 10.0888 12.9804 8.80188 12.9962ZM3.12992 8.18223C3.1617 7.13364 3.30469 6.11682 3.57478 5.11588C3.54301 5.09999 3.52712 5.09999 3.52712 5.09999C2.7645 5.2271 2.00189 5.3542 1.23927 5.49719C1.19161 5.49719 1.14395 5.56074 1.12806 5.6084C1.03273 5.8785 0.937404 6.16448 0.857965 6.43457C0.699087 7.00653 0.619648 7.5785 0.60376 8.16634C1.42993 8.18223 2.27198 8.18223 3.12992 8.18223ZM16.428 8.19812C16.3963 7.29251 16.2215 6.43457 15.8879 5.59252C15.872 5.54485 15.7925 5.49719 15.7449 5.49719C15.2682 5.40186 14.7757 5.32242 14.2991 5.24298C14.029 5.19532 13.743 5.14766 13.4411 5.09999C13.7271 6.1327 13.8542 7.16541 13.886 8.19812C14.7439 8.19812 15.5701 8.19812 16.428 8.19812ZM3.12992 8.78597C2.27198 8.78597 1.42993 8.78597 0.587871 8.78597C0.619647 9.69158 0.810301 10.5654 1.12806 11.3916C1.14395 11.4392 1.2075 11.471 1.25516 11.4869C1.74768 11.5822 2.24021 11.6617 2.71684 11.7411C2.98693 11.7888 3.25703 11.8364 3.5589 11.8841C3.30469 10.8514 3.1617 9.83457 3.12992 8.78597ZM13.4411 11.8523C13.4729 11.8682 13.4888 11.8682 13.5047 11.8682C14.2673 11.7411 15.014 11.614 15.7766 11.471C15.8243 11.4551 15.8879 11.4075 15.8879 11.3598C16.0308 10.8832 16.1897 10.4065 16.3009 9.92989C16.3804 9.56448 16.4122 9.16728 16.4598 8.77008C15.586 8.77008 14.7439 8.77008 13.9019 8.77008C13.8542 9.81868 13.7112 10.8514 13.4411 11.8523ZM5.97385 1.01682C5.95796 1.00093 5.95796 0.985046 5.94207 0.985046C3.95609 1.7 2.46264 2.98691 1.4617 4.86168C1.52525 4.86168 1.55703 4.86168 1.58881 4.86168C2.25609 4.75046 2.92338 4.62336 3.57478 4.51214C3.70189 4.49626 3.78133 4.44859 3.8131 4.32149C4.16263 3.25701 4.71871 2.30374 5.48132 1.49346C5.6402 1.31869 5.81497 1.1757 5.97385 1.01682ZM15.5701 4.87756C14.5374 2.97102 13.0598 1.68411 11.058 0.985046C11.1851 1.12804 11.3122 1.25514 11.4393 1.39813C12.2495 2.25607 12.8374 3.24112 13.1869 4.35327C13.2187 4.44859 13.2664 4.49626 13.3617 4.51214C13.7112 4.55981 14.0766 4.63925 14.4262 4.7028C14.8075 4.75046 15.1729 4.81401 15.5701 4.87756ZM5.97385 15.9832C5.95796 15.9514 5.94207 15.9355 5.92618 15.9196C4.92525 14.9981 4.22618 13.886 3.79721 12.5832C3.78133 12.5355 3.70189 12.4719 3.63834 12.4561C3.20936 12.3766 2.79628 12.2972 2.36731 12.2336C2.08133 12.186 1.77946 12.1383 1.47759 12.0906C1.90656 13.4888 4.25796 15.5224 5.97385 15.9832ZM11.0738 15.9673C12.5832 15.6654 15.2682 13.3458 15.5224 12.1065C15.4907 12.1065 15.4589 12.1065 15.4271 12.1224C14.7598 12.2336 14.0925 12.3607 13.4411 12.4719C13.2981 12.4878 13.2346 12.5514 13.1869 12.6785C12.9009 13.5523 12.4879 14.3308 11.9159 15.0458C11.6458 15.3635 11.3598 15.6654 11.0738 15.9673Z" fill="white"/>
</svg>
