<?xml version="1.0" encoding="UTF-8"?>
<svg width="29px" height="34px" viewBox="0 0 29 34" version="1.1" xmlns="http://www.w3.org/2000/svg" xmlns:xlink="http://www.w3.org/1999/xlink">
    <title>计时器</title>
    <g id="页面-1" stroke="none" stroke-width="1" fill="none" fill-rule="evenodd">
        <g id="3、dashboard-1-3A--my-asset--borrow-" transform="translate(-400.000000, -442.000000)">
            <g id="card" transform="translate(316.000000, 126.000000)">
                <g id="计时器" transform="translate(84.000000, 316.000000)">
                    <path d="M6.18618196,3.98457996 L8.25105713,6.93352732 L5.30210977,8.99840249 L3.2372346,6.04945513 C2.85710157,5.50656891 2.98903911,4.75831398 3.53192533,4.37818096 L4.51490778,3.68988923 C5.057794,3.30975621 5.80604893,3.44169374 6.18618196,3.98457996 Z M24.2850922,3.68988923 L25.2680747,4.37818096 C25.8109609,4.75831398 25.9428984,5.50656891 25.5627654,6.04945513 L23.4978902,8.99840249 L20.5489429,6.93352732 L22.613818,3.98457996 C22.9939511,3.44169374 23.742206,3.30975621 24.2850922,3.68988923 Z" id="形状结合" fill="#FFFFFF"></path>
                    <path d="M14.4,9.6 C9.10628569,9.6 4.8,13.9062857 4.8,19.2 C4.8,24.4937143 9.10628574,28.8 14.4,28.8 C19.6937143,28.8 24,24.4937143 24,19.2 C24,13.9062857 19.6937143,9.6 14.4,9.6 Z" id="路径" fill="#FFFFFF"></path>
                    <path d="M15.667347,20.6610666 L15.6612245,20.6486525 C15.2938776,21.3128019 14.6020408,21.7659132 13.8000001,21.7659132 C12.6183674,21.7659132 11.6571429,20.7914136 11.6571429,19.593462 C11.6571429,18.8362075 12.0367348,18.1720581 12.6122449,17.7872239 L12.6061225,17.7748099 L19.6714286,13.6781876 L15.667347,20.6610666 Z" id="路径" fill="#778AC4"></path>
                    <path d="M14.4,4.8 C22.3529004,4.8 28.8,11.2470996 28.8,19.2 C28.8,27.1529004 22.3529004,33.6 14.4,33.6 C6.4470996,33.6 0,27.1529004 0,19.2 C0,11.2470996 6.4470996,4.8 14.4,4.8 Z M14.4,7.2 C7.772583,7.2 2.4,12.572583 2.4,19.2 C2.4,25.827417 7.772583,31.2 14.4,31.2 C21.027417,31.2 26.4,25.827417 26.4,19.2 C26.4,12.572583 21.027417,7.2 14.4,7.2 Z" id="形状结合" fill="#FFFFFF" fill-rule="nonzero"></path>
                    <path d="M16.8,-8.13091431e-16 C17.4627417,-9.34835106e-16 18,0.5372583 18,1.2 C18,1.8627417 17.4627417,2.4 16.8,2.4 L15.599,2.399 L15.6,6 L13.2,6 L13.199,2.4 L12,2.4 C11.3372583,2.4 10.8,1.8627417 10.8,1.2 C10.8,0.5372583 11.3372583,-3.97432524e-16 12,-5.19176199e-16 L16.8,-8.13091431e-16 Z" id="形状结合" fill="#FFFFFF"></path>
                </g>
            </g>
        </g>
    </g>
</svg>