<?xml version="1.0" encoding="UTF-8"?>
<svg width="24px" height="24px" viewBox="0 0 24 24" version="1.1" xmlns="http://www.w3.org/2000/svg" xmlns:xlink="http://www.w3.org/1999/xlink">
    <title>wallet </title>
    <g id="页面-切图文件" stroke="none" stroke-width="1" fill="none" fill-rule="evenodd">
        <g id="23、dashboard-挖矿2--8.23" transform="translate(-1103.000000, -33.000000)">
            <g id="connect-备份" transform="translate(1096.666667, 29.166667)">
                <g id="wallet-" transform="translate(7.291667, 5.104167)">
                    <rect id="矩形" stroke="#FFFFFF" stroke-width="1.45833333" x="0.729166667" y="7.33752988" width="21.2403333" height="14.5203333" rx="1.19466667"></rect>
                    <path d="M21.9695,12.4148632 L21.9695,17.2285299 L14.1866667,17.2285299 C13.522038,17.2285299 12.9203297,16.9591359 12.4847785,16.5235847 C12.0492273,16.0880336 11.7798333,15.4863252 11.7798333,14.8216966 C11.7798333,14.1570679 12.0492273,13.5553595 12.4847785,13.1198084 C12.9203297,12.6842572 13.522038,12.4148632 14.1866667,12.4148632 L14.1866667,12.4148632 L21.9695,12.4148632 Z" id="矩形" stroke="#FFFFFF" stroke-width="1.45833333"></path>
                    <path d="M4.94714837,7.01866667 L4.94714837,7.01032979 L4.94714837,7.01032979 L4.94714837,1.49333333 C4.94714837,1.16343524 5.21458361,0.896 5.5444817,0.896 L9.72581503,0.896 C10.0557131,0.896 10.3231484,1.16343524 10.3231484,1.49333333 L10.3231484,6.50830803 L10.3231484,6.50830803" id="路径" stroke="#FFFFFF" stroke-width="1.45833333" transform="translate(7.635148, 3.957333) rotate(6.000000) translate(-7.635148, -3.957333) "></path>
                    <path d="M10.189903,5.58089127 L10.1189027,2.24470617 C10.1189027,1.91480808 10.3863379,1.64737284 10.716236,1.64737284 L18.332236,1.64737284 C18.6621341,1.64737284 18.9295694,1.91480808 18.9295694,2.24470617 C18.9295694,3.39807832 18.9295694,4.26310744 18.9295694,4.83979352 M11.6292747,8.363824 C11.5190575,8.36376564 11.3537318,8.36367811 11.1332975,8.36356141" id="形状" stroke="#FFFFFF" stroke-width="1.45833333" transform="translate(14.524236, 5.005598) rotate(26.000000) translate(-14.524236, -5.005598) "></path>
                    <rect id="矩形" fill="#FFFFFF" x="14.0373333" y="13.7763632" width="3.43466667" height="1.94133333" rx="0.970666667"></rect>
                </g>
            </g>
        </g>
    </g>
</svg>